<?xml version="1.0" encoding="utf-8"?>
<!-- Generator: Adobe Illustrator 22.0.1, SVG Export Plug-In . SVG Version: 6.00 Build 0)  -->
<svg version="1.1" id="Слой_1" xmlns="http://www.w3.org/2000/svg" xmlns:xlink="http://www.w3.org/1999/xlink" x="0px" y="0px"
	 viewBox="0 0 1120.1 702" style="enable-background:new 0 0 1120.1 702;" xml:space="preserve">
<style type="text/css">
	.st0{fill:#FFE0E2;}
	.st1{fill:#FFEFF0;}
	.st2{fill:#FFE6E7;}
	.st3{clip-path:url(#SVGID_2_);}
	.st4{fill:#362E2D;}
	.st5{fill:#FFFFFF;}
	.st6{fill:#4E3734;}
	.st7{fill:#F7F7F7;}
	.st8{fill:#8C503E;}
	.st9{fill:#FF6ED9;}
	.st10{fill:#5441AF;}
	.st11{fill:#4F3D9D;}
	.st12{fill:#FF353A;}
	.st13{fill:#E2303D;}
	.st14{fill:none;stroke:#5441AF;stroke-miterlimit:10;}
	.st15{fill:#FF5ED2;}
	.st16{fill:#DF8E89;}
	.st17{fill:#7B6DCF;}
	.st18{fill:#6A5AC1;}
	.st19{fill:#534FD2;}
	.st20{fill:#1C2A39;}
</style>
<g>
	<path class="st0" d="M0.1,0h1120v702H0.1V0z"/>
</g>
<path class="st1" d="M686.9,24.9l-4.1-2.8l-9.7,14l4.1,2.8L686.9,24.9z M155.2,39l5,0.6l-2.1,16.9l-5-0.6L155.2,39z M73.8,61
	l2.5,4.3l-14.7,8.5l-2.5-4.3L73.8,61z M275.8,156l4.1,2.8l-9.7,14l-4.1-2.8L275.8,156z M222.2,101.7l-5-0.6l-2.1,16.9l5,0.6
	L222.2,101.7z M47.7,116l-3.6,3.5L56,131.7l3.6-3.5L47.7,116z M847.8,168l2.5,4.3l-14.7,8.5l-2.5-4.3L847.8,168z M1057.3,59.4
	l-2.5-4.3l-14.7,8.5l2.5,4.3L1057.3,59.4z M999.2,220l5,0.6l-2.1,16.9l-5-0.6L999.2,220z M1051.2,432.7l-5-0.6l-2.1,16.9l5,0.6
	L1051.2,432.7z M865.1,299.6l3.6-3.5l11.9,12.1l-3.6,3.5L865.1,299.6z M719.7,312l-3.6,3.5l11.9,12.1l3.6-3.5L719.7,312z
	 M219.5,229.6l-2.4-4.4L232,217l2.4,4.4L219.5,229.6z M137.5,238.3l4.9,0.7l2.5-16.8l-4.9-0.7L137.5,238.3z M49.1,203.6l-4.9-0.7
	l2.5-16.8l4.9,0.7L49.1,203.6z M507.1,395.9l4.9,0.7l2.5-16.8l-4.9-0.7L507.1,395.9z M568.4,563l-2.6,4.3l-14.6-8.7l2.6-4.3
	L568.4,563z M318.8,222.9l3.6-3.4L310.8,207l-3.6,3.4L318.8,222.9z M422.4,51l4.1,2.8l-9.7,14l-4.1-2.8L422.4,51z M407.5,222.6
	l-2.4-4.4L420,210l2.4,4.4L407.5,222.6z M273.1,61.2l2.4,4.4l14.9-8.1L288,53L273.1,61.2z M333.1,120l-4.9-0.7l2.5-16.8l4.9,0.7
	L333.1,120z M503.8,74.9l3.6-3.4L495.8,59l-3.6,3.4L503.8,74.9z M146.2,440.6l-5.1-0.7l2.5-16.8l5.1,0.7L146.2,440.6z M73.3,366.4
	l-4.2-2.9l-10,13.9l4.2,2.9L73.3,366.4z M184.1,286.6l4.9-1.5l5.4,16.2l-4.9,1.5L184.1,286.6z M561,303l-4.9,1.5l5.4,16.2l4.9-1.5
	L561,303z M917.5,73.6l-2.4-4.4L930,61l2.4,4.4L917.5,73.6z M974.3,143.3l5-0.3l-1.2-17l-5,0.3L974.3,143.3z M826.5,72l-4.9-0.7
	l2.5-16.8l4.9,0.7L826.5,72z M742.1,173.1l2.4-4.4l-14.8-8.3l-2.4,4.4L742.1,173.1z M1006.1,545.6l-4.9-0.7l2.5-16.8l4.9,0.7
	L1006.1,545.6z M904,210l-4.9,1.5l5.4,16.2l4.9-1.5L904,210z M794.1,357.6l4.9-1.5l5.4,16.2l-4.9,1.5L794.1,357.6z M298.9,486
	l-1.8,4.7l16.4,5.9l1.8-4.7L298.9,486z M298.3,319.7l3.7-3.4l12.1,12.6l-3.7,3.4L298.3,319.7z M326.2,332.7l-1.7-4.7l-16.3,6.1
	l1.7,4.7L326.2,332.7z"/>
<path class="st2" d="M761.7,80c1.1-5.1,6.7-7.7,11.4-5.4l20.5,10.2c3.4,1.7,5.1,5.5,4.2,9.1l-5,19.5c-1.1,4.4-5.8,7-10.1,5.7
	l-20.7-6.4c-4-1.2-6.3-5.3-5.4-9.4L761.7,80z M88.9,145.1c-1.9,4.8,1.1,10.2,6.3,10.9l52.9,7.5c4.2,0.6,8.1-2.2,9-6.3l7.9-39
	c0.9-4.4-2.1-8.7-6.5-9.5l-45-7.6c-3.7-0.6-7.3,1.4-8.7,4.9L88.9,145.1z M978.1,275c-1.8,4.9,1.4,10.2,6.5,10.8l64.4,7.7
	c4.1,0.5,7.9-2.2,8.8-6.3l12.7-60.5c0.9-4.5-2.1-8.9-6.6-9.6l-54.2-8.2c-3.7-0.6-7.3,1.6-8.7,5.1L978.1,275z M355.7,402.4
	c-0.9,5.1-6.4,8-11.2,5.8l-65.4-29.6c-3.4-1.6-5.3-5.3-4.5-9l13.5-62c1-4.5,5.5-7.2,9.9-6l65.7,17.9c4,1.1,6.5,5.1,5.8,9.2
	L355.7,402.4z M114.8,675.3c2.1,4.9,8.3,6.4,12.4,3.1l36.8-29.7c3-2.4,3.9-6.7,2-10.1l-37.8-68.5c-2.3-4.2-7.8-5.4-11.7-2.6
	l-31.4,23c-3,2.2-4.1,6.2-2.6,9.6L114.8,675.3z M824.7,499.2c-4.3,3-10.2,1.2-12.1-3.7l-7.4-19.1c-1.4-3.5-0.1-7.5,3.1-9.6l13.4-8.8
	c3.9-2.5,9-1.3,11.3,2.7l9.6,16.9c2,3.6,1,8.1-2.4,10.5L824.7,499.2z M1044.2,672.4c5.3,0.2,9.3-4.7,8-9.9l-11.4-46.9
	c-1-4.3-5.4-6.9-9.7-5.9l-18.9,4.6c-4.2,1-6.9,5.3-5.9,9.5l9.4,41.6c0.8,3.6,3.9,6.1,7.5,6.2L1044.2,672.4z M98.7,251.8
	c-0.1-5.2-5.1-8.9-10.1-7.6l-23,6.2c-4,1.1-6.5,5.1-5.8,9.2l3.9,21.3c0.8,4.5,5.3,7.4,9.7,6.4l19.6-4.6c3.7-0.9,6.2-4.2,6.2-7.9
	L98.7,251.8z"/>
<g>
	<defs>
		<rect id="SVGID_1_" x="52.1" y="228" width="1016.1" height="452.5"/>
	</defs>
	<clipPath id="SVGID_2_">
		<use xlink:href="#SVGID_1_"  style="overflow:visible;"/>
	</clipPath>
	<g class="st3">
		<path class="st4" d="M59,268.5l12.8,48.3L102,308l-12.8-48.3L59,268.5z"/>
		<path class="st5" d="M56.3,271.8l2.6-3.1l28.7-5.2l12.8,43.5l-10.8,25.6l-20.2-13.9L56.3,271.8z"/>
		<path class="st6" d="M77.9,290.5l12.8,44.3L69,320.1l-12.7-48.3L77.9,290.5z"/>
		<path class="st7" d="M58.9,269.6l26.8-1.1l13,42.6l1.7-4l-12.8-43.5l-27.9,5L58.9,269.6z"/>
		<path class="st8" d="M179,340.1c16.8,0,30.5-14.4,30.5-32.2c0-17.8-13.7-32.2-30.5-32.2s-30.5,14.4-30.5,32.2
			C148.5,325.7,162.2,340.1,179,340.1z"/>
		<path class="st9" d="M318.3,612.4c0,0,3.8,10,5.5,15.5c1.7,5.5,4.7,12.3,7.2,12.5c2.5,0.2,3-10,1.4-25.6
			c-1.6-15.5-0.4-17.7-8.5-17.6c-3.6,0-5.6-0.3-5.6-0.3V612.4L318.3,612.4z"/>
		<path class="st9" d="M94.3,666.6c0,0-10.9,1.8-16.6,4.2c-5.7,2.4-10.1,4.9-10.1,7.8c0,2.3,10.4,1.6,26.6,1.6
			c16.6,0.1,21.3,0.5,18.4-8.3c-1-3.1-3.6-5.6-3.6-5.6L94.3,666.6z"/>
		<path class="st6" d="M209.5,308c0-17.8-13.7-32.2-30.5-32.2c-4.6,0-9,1.1-12.9,3.1l-0.8,0.4c-1,2-1.6,4.2-1.6,6.6
			c0,7.7,5.9,13.9,13.2,13.9c0.6,0,1.2-0.1,1.9-0.1c-0.8,1.1-1.2,2.4-1.2,3.9c0,3.3,2.4,6,5.4,6.4c-0.3,0.8-0.4,1.7-0.4,2.5
			c0,4,3.1,7.3,6.9,7.3h0.1c0.6,3,3,5.1,6,5.1c0.8,0,1.6-0.2,2.3-0.4c0.4,2.2,2.3,3.9,4.5,3.9l1.7-1.7
			C207.4,321.5,209.5,314.9,209.5,308z"/>
		<path class="st8" d="M87.9,345.8c0,0,0.6-10.4-2.3-16c-2.9-5.6-9.1-8.6-12-13.5c-2.8-4.9-2.7-11.5-5.4-12.1
			c-2.7-0.6-7.2,10.8-4.3,16.2c2.8,5.5,6.4,9.1,8.2,14.7c1.8,5.6,4.6,10.5,6.3,12.1C80.2,348.8,87.9,345.8,87.9,345.8z"/>
		<path class="st8" d="M258.4,471.2c0,0,3.5,9.8,8.4,13.6c4.8,3.8,11.7,3.9,16.2,7.2c4.5,3.2,6.9,9.3,9.6,8.6s2.3-13-2.4-16.7
			c-4.7-3.8-9.4-5.5-13.2-9.8c-3.8-4.3-8.3-7.6-10.5-8.3C264.3,465.1,258.4,471.2,258.4,471.2z"/>
		<path class="st10" d="M142.3,492.8c0,0-19.5,42.9-28,76.2c-11.2,44.1-20,97.6-20,97.6l14.6-0.2c0,0,17.7-21.7,43.3-65.7
			c25.8-44.4,37.5-72.5,37.5-72.5s17.3,65.8,28.6,76.1c15.8,14.4,52.7,13.8,64.4,13c11.7-0.8,35.5-4.8,35.5-4.8V597
			c0,0-30-5.1-42-10.3c-12-5.3-26.3-9.6-26.3-9.6s-4.8-35.2-8.3-53.9s-8.3-40.1-8.3-40.1L142.3,492.8z"/>
		<path class="st11" d="M189.8,528.1l5.8-12.9c0,0,3.3,6.9,2.9,15.6c-0.3,8.8-2.1,20.5-2.1,20.5L189.8,528.1z"/>
		<path class="st12" d="M52.1,360.8c0,0,5.2,0.2,13.7,6c19,13,25.2,41,48.2,45.1c19.3,3.5,31.8-2.6,31.8-2.6s-7.5,22.7-9.5,33
			c-2,10.3-1.8,29-9.8,37.2c-8,8.2-11.7,12.1-11.7,12.1s35,6.6,63.3,1.1c28.3-5.6,43.7-7.6,48.8-7.4c5.2,0.2,13.2,1.3,13.2,1.3
			s-3.2-7.6-6.2-15.3c-3-7.7-3.7-15.5-3.7-15.5s19,16,22,21.3c3,5.3,3.5,14,3.5,14s4.3-9.8,7.3-13.2c3-3.4,5.3-7.4,9-10.3
			c3.7-3,5.8-5.3,5.8-5.3s-4,0.3-7.5-3c-3.5-3.4-23.2-28.8-27.2-32.9c-4-4-19-21.3-19-21.3s-1.8-55-32.7-54
			c-19.5,0.6-30.8,5.8-43.2,12.9c-12.3,7.1-23.2,14.8-23.2,14.8s-21-13.4-28.3-29.4c-2.5-5.4-3.6-9.4-3.6-9.4s-7.7,1.5-18.3,7
			C63.5,353,52.1,360.8,52.1,360.8z"/>
		<path class="st13" d="M145.8,409.3c0,0,10.9-0.3,21.2-3.6c10.3-3.4,21.4-8.5,24.1-15.2c2.7-6.6,3.9-13.4,3.9-13.4
			s1.9,11.1-2.5,21.5c-4.4,10.4-18.6,15.5-23.9,17.5c-5.3,2-26.7,5.6-26.7,5.6L145.8,409.3z"/>
		<path class="st13" d="M225.3,417c0,0,1.6,18.6,2.3,24s2.8,15,2.8,15l5.2,4.4c0,0-3.7-11.7-5.1-20C228.9,432.1,225.3,417,225.3,417
			z"/>
		<path class="st10" d="M186.5,485.5c-3.5,0-6.3-3-6.3-6.6c0-3.7,2.8-6.6,6.3-6.6s6.3,3,6.3,6.6C192.8,482.6,190,485.5,186.5,485.5z
			 M186.5,473.3c-2.9,0-5.3,2.5-5.3,5.6s2.4,5.6,5.3,5.6c2.9,0,5.3-2.5,5.3-5.6S189.5,473.3,186.5,473.3z"/>
		<path class="st10" d="M214.1,379.1c2,0,3.8-1.1,5-2.6c-0.1-0.4-0.3-0.8-0.4-1.3c-0.9,1.7-2.6,2.7-4.5,2.7c-2.9,0-5.3-2.5-5.3-5.6
			c0-3.1,2.4-5.6,5.3-5.6c0.3,0,0.6,0,0.9,0.1c-0.2-0.4-0.4-0.7-0.6-1.2c-0.1,0-0.2,0-0.3,0c-3.5,0-6.3,3-6.3,6.6
			C207.9,376.1,210.6,379.1,214.1,379.1z"/>
		<path class="st10" d="M131.7,488.5c5,0,9.1-4.3,9.1-9.6c0-5.3-4-9.5-9-9.6c-0.1,0.3-0.2,0.7-0.3,1.1c0.1,0,0.1,0,0.2,0
			c4.5,0,8.1,3.8,8.1,8.5s-3.6,8.5-8.1,8.5c-3.4,0-6.4-2.3-7.6-5.5c-0.3,0.3-0.5,0.5-0.8,0.8C124.8,486.2,128,488.5,131.7,488.5z"/>
		<path class="st10" d="M156.1,384c-4,0-7.2-3.4-7.2-7.6c0-4.2,3.2-7.6,7.2-7.6s7.2,3.4,7.2,7.6C163.3,380.6,160,384,156.1,384z
			 M156.1,370c-3.4,0-6.2,3-6.2,6.5s2.8,6.5,6.2,6.5s6.2-3,6.2-6.5S159.5,370,156.1,370z"/>
		<path class="st10" d="M98.9,370c-2.5,0-4.6-2.2-4.6-4.9c0-2.6,2.1-4.9,4.6-4.9s4.6,2.2,4.6,4.9C103.5,367.8,101.4,370,98.9,370z
			 M98.9,361.3c-2,0-3.6,1.7-3.6,3.8s1.6,3.8,3.6,3.8s3.6-1.7,3.6-3.8S100.9,361.3,98.9,361.3z"/>
		<path class="st10" d="M247,430.9c-0.6,1.2-1.8,1.9-3.1,1.9c-2,0-3.6-1.7-3.6-3.8c0-1.5,0.8-2.7,2-3.4c-0.2-0.2-0.5-0.5-0.7-0.7
			c-1.4,0.8-2.3,2.4-2.3,4.2c0,2.6,2.1,4.9,4.6,4.9c1.6,0,3-0.8,3.8-2.1C247.5,431.4,247.3,431.1,247,430.9z"/>
		<path class="st10" d="M198.5,419.2c-2.5,0-4.6-2.2-4.6-4.9s2.1-4.9,4.6-4.9s4.6,2.2,4.6,4.9S201.1,419.2,198.5,419.2z
			 M198.5,410.7c-2,0-3.6,1.7-3.6,3.8c0,2.1,1.6,3.8,3.6,3.8s3.6-1.7,3.6-3.8C202.1,412.4,200.5,410.7,198.5,410.7z"/>
		<path class="st10" d="M66.3,362.4c-1.6,0-3,1.1-3.7,2.4c0.3,0.2,0.6,0.3,0.9,0.5c0.5-1.2,1.6-1.9,2.8-1.9c1.7,0,3.1,1.5,3.1,3.3
			c0,0.8-0.3,1.7-0.9,2.2c0.3,0.2,0.5,0.4,0.8,0.6c0.7-0.7,1.1-1.8,1.1-2.8C70.4,364.3,68.6,362.4,66.3,362.4z"/>
		<path class="st10" d="M150.3,442.4c-3,0-5.4-2.5-5.4-5.7s2.4-5.7,5.4-5.7s5.4,2.5,5.4,5.7S153.3,442.4,150.3,442.4z M150.3,432
			c-2.4,0-4.4,2.1-4.4,4.6c0,2.5,2,4.6,4.4,4.6c2.4,0,4.4-2.1,4.4-4.6C154.7,434.1,152.8,432,150.3,432z"/>
		<path class="st10" d="M249,464.8c-2.2,0-4.1,1.4-5,3.4c0.3,0.2,0.5,0.5,0.8,0.7c0.6-1.8,2.2-3.2,4.2-3.2c2.4,0,4.4,2.1,4.4,4.6
			c0,2-1.2,3.7-2.9,4.3c0.3,0.3,0.5,0.5,0.7,0.8c1.9-0.9,3.2-2.8,3.2-5.2C254.4,467.3,252,464.8,249,464.8z"/>
		<path class="st10" d="M133.6,403.3c-2.3,0-4.1-1.9-4.1-4.3c0-2.4,1.8-4.3,4.1-4.3s4.1,1.9,4.1,4.3
			C137.7,401.4,135.9,403.3,133.6,403.3z M133.6,395.7c-1.7,0-3.1,1.5-3.1,3.3c0,1.8,1.4,3.3,3.1,3.3s3.1-1.5,3.1-3.3
			C136.7,397.2,135.3,395.7,133.6,395.7z"/>
		<path class="st10" d="M214.1,456.1c-3.2,0-5.7-2.7-5.7-6c0-3.3,2.6-6,5.7-6s5.7,2.7,5.7,6C219.8,453.4,217.3,456.1,214.1,456.1z
			 M214.1,445c-2.6,0-4.7,2.2-4.7,5c0,2.7,2.1,5,4.7,5s4.7-2.2,4.7-5C218.8,447.3,216.7,445,214.1,445z"/>
		<path class="st10" d="M174,453.3c-1.7,0-3-1.5-3-3.2c0-1.8,1.4-3.2,3-3.2c1.6,0,3,1.5,3,3.2C177,451.8,175.7,453.3,174,453.3z
			 M174,447.9c-1.1,0-2,0.9-2,2.1c0,1.2,0.9,2.1,2,2.1c1.1,0,2-0.9,2-2.1C176,448.8,175.1,447.9,174,447.9z"/>
		<path class="st10" d="M101.4,406.6c0.8-1.1,1.3-2.4,1.3-4c0-3.7-2.8-6.6-6.3-6.6c-1.6,0-3.1,0.6-4.2,1.7c0.2,0.3,0.5,0.5,0.7,0.8
			c0.9-0.8,2.2-1.5,3.5-1.5c2.9,0,5.3,2.5,5.3,5.6c0,1.3-0.4,2.4-1.1,3.4C100.8,406.1,101.1,406.3,101.4,406.6z"/>
		<path class="st14" d="M78.4,670.2c0,0,1.1,0.6,1.8,1.8c0.7,1.2,0.5,3,0.5,3"/>
		<path class="st14" d="M82.1,668.6c0,0,1.1,0.6,1.8,1.8c0.7,1.2,0.5,3,0.5,3"/>
		<path class="st14" d="M85.7,667.6c0,0,1.1,0.6,1.8,1.8c0.7,1.2,0.5,3,0.5,3"/>
		<path class="st14" d="M89,666.5c0,0,1.1,0.6,1.8,1.8c0.7,1.2,0.5,3,0.5,3"/>
		<path class="st14" d="M323,627.1c0,0,0.5-1.3,1.6-2c1.1-0.7,2.8-0.6,2.8-0.6"/>
		<path class="st14" d="M321.3,623.4c0,0,0.5-1.3,1.6-2c1.1-0.7,2.8-0.6,2.8-0.6"/>
		<path class="st14" d="M320.3,619.6c0,0,0.5-1.3,1.6-2c1.1-0.7,2.8-0.6,2.8-0.6"/>
		<path class="st14" d="M319,616.2c0,0,0.5-1.3,1.6-2c1.1-0.7,2.8-0.6,2.8-0.6"/>
		<path class="st11" d="M575.2,342.2l31.8,40.3l-14.8,23l-30.6-38.1L575.2,342.2z"/>
		<path class="st5" d="M561.6,370.1l0.1-2.4l13.6-23.8l30.1,38.7l-10.3,15.6l-10.8-4.5L561.6,370.1z"/>
		<path class="st7" d="M614.6,413.8l1.5-1.5l-27.2-34.8l-27.3-8.2v0.7l7.7,10.4L614.6,413.8z"/>
		<path class="st10" d="M588.3,378.6l27.8,36l-25.3-5l-29.2-39.5L588.3,378.6z"/>
		<path class="st4" d="M561.6,367.4v2.6l0.6,0.2l-0.1-3.9L561.6,367.4z"/>
		<path class="st9" d="M652.7,511.9c0,0-20.8,19-28.8,26.9c-8,7.9-12,11.1-14,16.9c-2,5.8-6.5,47.4-7.3,60.4
			c-0.8,13-1.5,40.9-1.5,40.9h13.8c0,0,5-18.5,10-29.3c5-10.9,12.3-23.2,15.5-32.7c3.2-9.5,4.8-22.5,4.8-22.5s12.8-1.3,27.8-9.2
			c15-7.9,21.3-11.9,21.3-11.9s9.3,19.5,17.3,35.9s11,21.4,18,28.5c7,7.1,34.2,19.4,46.7,23.4c17.3,5.5,32.4,7.6,32.4,7.6l2.5-14
			c0,0-20-10.6-30.9-18.6c-10-7.3-18.3-15.5-20.8-22.4s-6.1-46-9.3-63.6c-3.2-17.6-9.5-25.1-9.5-25.1L652.7,511.9z"/>
		<path class="st15" d="M694.2,551.4c0,0,4.1-2,7.6-4.3s6.4-4.9,6.4-4.9s-0.8,5.8-3.3,10.9c-2.5,5.1-5.5,9.3-5.5,9.3L694.2,551.4z"
			/>
		<path class="st10" d="M657.5,557.9l-6-5l4.7-6.3l6,5L657.5,557.9z M652.9,552.8l4.4,3.6l3.4-4.6l-4.4-3.6L652.9,552.8z"/>
		<path class="st10" d="M621.3,561.1l-4.7-1.3l1.2-5l4.7,1.3L621.3,561.1z M617.8,559.1l2.8,0.7l0.7-3l-2.8-0.7L617.8,559.1z"/>
		<path class="st10" d="M690.2,536.5l-4.7-1.3l1.2-5l4.7,1.3L690.2,536.5z M686.7,534.5l2.8,0.7l0.7-3l-2.8-0.7L686.7,534.5z"/>
		<path class="st10" d="M635.9,582.9l-6.4-6.1l5.8-6.7l6.4,6.1L635.9,582.9z M630.9,576.7l4.9,4.7l4.5-5.2l-4.9-4.7L630.9,576.7z"/>
		<path class="st10" d="M721.5,537.6l-5.7-5.3l5-6l5.7,5.3L721.5,537.6z M717.2,532.4l4.2,3.9l3.7-4.4l-4.2-3.9L717.2,532.4z"/>
		<path class="st10" d="M614.3,646.2l-4.7-1.5l1.4-5l4.7,1.5L614.3,646.2z M610.9,644l2.7,0.8l0.8-2.8l-2.7-0.8L610.9,644z"/>
		<path class="st10" d="M608,626.6l-1.5-7.5l7.1-1.6l1.5,7.5L608,626.6z M607.7,619.9l1.1,5.5l5.2-1.2l-1.1-5.5L607.7,619.9z"/>
		<path class="st10" d="M605.3,588c0,0.4-0.1,0.9-0.1,1.4l1.3-0.8l2.5,4l-3.8,2.6l-0.5-0.7c-0.1,0.5-0.1,1.2-0.2,1.7l0.3,0.5
			l5.5-3.7l-3.5-5.8L605.3,588z"/>
		<path class="st10" d="M643.3,526.1l-4.5,2.8l-1.6-2.7c-0.3,0.2-0.5,0.4-0.8,0.7l2,3.5l6.2-3.9l-2.7-4.6c-0.3,0.2-0.5,0.4-0.8,0.7
			L643.3,526.1z"/>
		<path class="st10" d="M733.6,590.6l-4.8-6.2l5.9-5.1l4.8,6.2L733.6,590.6z M730.3,584.5l3.5,4.5l4.3-3.7l-3.5-4.5L730.3,584.5z"/>
		<path class="st10" d="M736.4,614.3l-4.3-2.3l2.2-4.5l4.3,2.3L736.4,614.3z M733.4,611.5l2.6,1.4l1.3-2.7l-2.6-1.4L733.4,611.5z"/>
		<path class="st10" d="M741.1,552l-4.3-2.3l2.2-4.5l4.3,2.3L741.1,552z M738.1,549.1l2.6,1.4l1.3-2.7l-2.6-1.4L738.1,549.1z"/>
		<path class="st10" d="M761.9,596.8c-0.2-0.3-0.4-0.5-0.6-0.8l-3.6,2.6l-3.8-5.8l4.7-3.4c-0.1-0.3-0.2-0.7-0.2-1.2l-5.8,4.2
			l4.9,7.5L761.9,596.8z"/>
		<path class="st10" d="M798.7,636.3l-7.3-0.1l0.1-7.7l7.3,0.1L798.7,636.3z M792.4,635.2l5.3,0.1l0.1-5.6l-5.3-0.1L792.4,635.2z"/>
		<path class="st10" d="M764.1,633.2l-2.2-6.5l6.2-2.3l2.2,6.5L764.1,633.2z M763.2,627.3l1.5,4.5l4.3-1.6l-1.5-4.5L763.2,627.3z"/>
		<path class="st10" d="M705.4,574.7l9.1,3.7l-3.1,8.5c0,0.1,0.1,0.2,0.1,0.2c0.2,0.3,0.3,0.6,0.5,1.1l3.8-10.4l-11.1-4.5
			C704.9,573.8,705.1,574.2,705.4,574.7z"/>
		<path class="st10" d="M624.1,608.6l5.5,8l1.3-1.1c0.4-0.7,0.7-1.4,1.1-2.1l-2.2,1.7l-4.3-6.3l6-4.5l3,4.3c0.2-0.3,0.3-0.7,0.5-1.1
			l-3.2-4.7L624.1,608.6z"/>
		<path class="st16" d="M695.9,367.7c16.8,0,30.5-14.4,30.5-32.2c0-17.8-13.7-32.2-30.5-32.2c-16.8,0-30.5,14.4-30.5,32.2
			C665.4,353.3,679.1,367.7,695.9,367.7z"/>
		<path class="st10" d="M601.2,656.9c0,0,0.3,4-1.3,4.8c-3.1,1.9-8.2,5-11.1,7c-4.3,3-9.6,8.1-9.1,10.8c0.5,2.5,9.6,0.2,22.8-5.2
			c13.2-5.3,15.7-3.8,13.4-12c-1-3.7-1.3-5.7-1.3-5.7L601.2,656.9z"/>
		<path class="st10" d="M808.5,646.7c0,0,3.7,0.5,4.3,2.3c1.1,3.6,3,9.5,4.3,12.9c1.9,5.1,5.7,11.5,8.2,11.5s2.1-9.9-0.2-24.6
			c-2.3-14.7-0.4-17-8.5-16.2c-3.6,0.3-5.5,0.2-5.5,0.2L808.5,646.7z"/>
		<path class="st16" d="M604,415.7c0,0-2.3-10.1-6.7-14.6c-4.3-4.4-11.1-5.5-15.2-9.2c-4.1-3.7-5.8-10.1-8.5-9.9s-3.8,12.5,0.4,16.9
			c4.2,4.3,8.7,6.6,12,11.5c3.3,4.9,7.4,8.6,9.4,9.6S604,415.7,604,415.7z"/>
		<path class="st16" d="M755.8,305.1c0,0-0.2-7.2,2.7-12.8c2.9-5.6,11.1-9,13.9-13.8c2.8-4.9,7.4-9.7,10.1-10.3
			c2.7-0.6,2.5,8.1-0.3,13.6c-2.8,5.5-8.9,6.9-10.7,12.5c-1.8,5.7-4.6,10.5-6.2,12.1C763.6,308,755.8,305.1,755.8,305.1z"/>
		<path class="st12" d="M674.3,299.4c0,0-2,13.2,9.1,20.4c11.1,7.2,18.9,3.6,18.9,3.6s-2.3,12.8,4.9,22.8c7.2,10,10.4,12,10.4,12
			s17.9-13.8,13.9-28.7c-2.3-8.4-7.7-10.4-7.7-10.4s0.3-8.3-8-14.8s-24.3-1.2-31-1.6S674.3,299.4,674.3,299.4z"/>
		<path class="st10" d="M594.2,422.3l9.5-10.5l7,7.7c0,0,9.8,1.9,14.6,3.6c4.8,1.7,8.9,4.5,8.9,4.5s22.9-22,35.1-28.5
			c12.2-6.5,31.2-10.5,46-18.2s28-22.5,28-22.5s5-16.7,6.8-23.4c1.8-6.6,4-18.5,4-18.5v-11.7h13v10.8c0,0,4,11.3,5.2,30.4
			c1.2,19.2-3.2,34.6-3.2,34.6s-17.5,17.1-23.7,23.5c-6.2,6.5-14.3,15.5-14.3,15.5s5.7,21.6,10.5,43.8s5.7,42.2,5.7,42.2
			s-21.3,16.9-50.7,17.9c-29.4,1.1-48.8-11.3-48.8-11.3s0.3-18.2,1.7-30.4c1.3-12.1,7.3-30.1,7.3-30.1s-5,6-9.7,9.7
			c-4.7,3.7-10,6.6-10,6.6s-14.2-5.1-22.8-16.9c-8.7-11.8-12.7-21.8-12.7-21.8L594.2,422.3z"/>
		<path class="st11" d="M656.8,451.8c0,0,5.6-17.2,8.8-26.7s4.7-13.1,4.7-13.1s-7.8,7.8-12.2,20.8c-4.4,13-7.7,25.9-7.7,25.9
			L656.8,451.8z"/>
		<path class="st15" d="M497.3,509.7l2.1-4l32.8-20.1l12.9,24.1l-0.6,3l-34.1,20.9L497.3,509.7z"/>
		<path class="st9" d="M531.6,488.9l-34.2,20.8l13,23.7l34.2-20.8L531.6,488.9z"/>
		<path class="st6" d="M363.3,665.2c0,0-5.6-36.2-0.3-71.6c5.4-36,14.5-73.5,14.5-73.5s28.8,6.3,49.3,2.3c20.5-4,45-11.3,45-11.3
			s4.2,20.4,6.6,44.6c2.3,24.3,0.8,20.6,4.1,32.5c3.3,11.9,14.9,46.7,19.2,56.9c4.4,10.2,9.1,22.9,9.1,22.9h-15.3
			c0,0-30.2-33.2-43-53.2c-12.8-20-28.6-55.6-28.6-55.6s-17,37.1-23.9,52.5c-6.9,15.5-24.2,56.9-24.2,56.9L363.3,665.2z"/>
		<path class="st16" d="M426,385.2c16.1,0,29.2-13.8,29.2-30.8c0-17-13.1-30.8-29.2-30.8c-16.1,0-29.2,13.8-29.2,30.8
			C396.8,371.4,409.9,385.2,426,385.2z"/>
		<path class="st6" d="M451,370.4c2.7-4.6,4.3-10.2,4.3-16c0-17.1-13.1-30.8-29.2-30.8c-6,0-11.5,1.9-16.1,5.2
			c0,0-3.2,11.1,4.6,18.3c7.9,7.4,16.4,3.2,16.4,3.2s-3.3,10.6,5.3,17.3C443.6,373.2,451,370.4,451,370.4z"/>
		<path class="st6" d="M454.3,341.9c13.8,0,25-11.8,25-26.4c0-14.6-11.2-26.4-25-26.4s-25,11.8-25,26.4
			C429.3,330.1,440.5,341.9,454.3,341.9z"/>
		<path class="st4" d="M427.2,541.8c0,0-1,7.2-1.8,11c-0.8,3.8-1.6,6.5-1.6,6.5l8.6,18.5c0,0,0.4-15.3-1.2-23.8
			S427.2,541.8,427.2,541.8z"/>
		<path class="st12" d="M363.3,665.2c0,0-9.9,1.8-15,2.4c-5.1,0.6-11.7,2.4-12.3,5c-0.6,2.5,8.2,5.1,22,6.6
			c13.8,1.5,15,3.2,16.2-5.1c0.5-3.8,1.4-5.3,1.4-5.3L363.3,665.2z"/>
		<path class="st12" d="M498,668.3c0,0-9.1,1.7-13.9,3.8c-4.8,2.1-8.5,4.3-8.5,7c0,2,8.7,1.4,22.3,1.5c13.9,0.1,17.8,0.4,15.4-7.5
			c-0.8-2.7-3.1-5-3.1-5L498,668.3z"/>
		<path class="st16" d="M334.6,449.1c0,0-4.6-6-7.8-7.9c-3.2-1.9-8.7-4-11.3-5.6c-2.6-1.6-7.8-5.3-9.3-2.8c-1.5,2.4,0.8,6.6,4.4,8.9
			c3.6,2.3,9.2,12.4,14.5,13.2c5.3,0.7,7.6,0.9,7.6,0.9L334.6,449.1z"/>
		<path class="st16" d="M511.7,487.3c0,0,2.3-0.9,5.7,2.6c3.4,3.6,6.6,11.8,7.8,14.9c1.2,3.1,1.5,6.1,2.6,8.2c1.1,2.2,1.4,4.5,0,5.4
			c-1.4,0.8-5.6-2.5-8.9-6c-3.3-3.5-7.3-5.8-9.4-10.5c-2-4.5-1.8-8.2-1.8-8.2L511.7,487.3z"/>
		<path class="st17" d="M336.1,444.2c0,0,15.6,3,21.1,4c5.5,1.1,12,2.3,12,2.3s15.5-20.9,26.1-32.4c10.6-11.4,16.4-19.3,32.1-19.3
			c20.2,0,43.9,27,56.8,42.9c14.9,18.5,29.1,43,29.1,43l-7.8,12.4c0,0-18.1-14.4-25.3-18.7c-7.2-4.2-17.7-9.8-17.7-9.8
			s3.8,10.9,6.4,23c2.6,12.1,3,19.3,3,19.3s-16.7,11.9-46.1,13.7c-29.4,1.8-48.2-4.7-48.2-4.7s1.6-11.9,3.3-19.7
			c1.7-7.7,3.6-14.6,3.6-14.6s-10.6,0.9-24.3-4.1c-17.8-6.5-28.9-21.2-28.9-21.2L336.1,444.2z"/>
		<path class="st18" d="M384.4,485.9c0,0-2.5,9.5-3.2,12.9c-0.7,3.4-1.5,7.6-1.5,7.6s31.4-32.4,38.2-40.3
			c6.8-7.9,18.9-21.9,18.6-34.3c-0.3-12.3-2.6-15.1-2.6-15.1s1.4,7.9-1.3,16c-3.8,11.3-19.6,25.9-27.1,33.3
			C399.3,472.3,384.4,485.9,384.4,485.9z"/>
		<path class="st18" d="M453.5,435.7c0,0,4.1,12.4,5.7,18.2c1.6,5.8,3.2,14.9,3.2,14.9l6,3.3c0,0-4.3-13.2-7-20.5
			C458.7,444.3,453.5,435.7,453.5,435.7z"/>
		<path class="st9" d="M456.9,477.2l-0.5,4.5l3.2,3l-4.1,0.8l-1.7,4.1l-2.1-3.9l-4.3-0.3l2.9-3.4l-0.9-4.3l3.8,1.8L456.9,477.2z"/>
		<path class="st9" d="M471.8,511.2c0,0-0.1-1.8-0.5-5.2l-2,2.5l-3.5-0.3l1.9,3.2l-1.3,3.1C470,512.4,471.8,511.2,471.8,511.2z"/>
		<path class="st9" d="M388.5,429l1.6,3l1.3-3.2l3.2-0.7l-2.5-2.2l0.4-3.4l-2,1.3c-1.4,1.6-2.8,3.3-4.2,5.1L388.5,429z"/>
		<path class="st9" d="M389.1,522.9l3.5-0.8l-3.3-2.8l0.4-4.4l-3.6,2.4l-3.9-1.7l1.1,4.3l-1.3,1.6
			C383.8,521.8,386.2,522.3,389.1,522.9z"/>
		<path class="st9" d="M439.5,508.2l2.4,0.7l1.9-1.8l0.1,2.6l2.2,1.4l-2.3,0.9l-0.6,2.5l-1.6-2l-2.4,0.2l1.3-2.2L439.5,508.2z"/>
		<path class="st9" d="M391.5,457.1l3.1,0.8l2.5-2.2l0.2,3.5l2.7,1.7l-3,1.3l-0.7,3.3l-2.1-2.6l-3.2,0.3l1.8-2.8L391.5,457.1z"/>
		<path class="st9" d="M501.2,465.4l-0.3,0.2l-3.1-0.8l1.3,3.2l-1.7,2.8l3.2-0.3l2,2.6l0.7-3.3l0.6-0.2
			C503.1,468.2,502.2,466.9,501.2,465.4z"/>
		<path class="st9" d="M426.8,463.8l1.7,0.4l1.3-1.2l0.1,1.8l1.5,0.9l-1.6,0.6l-0.4,1.8l-1.1-1.4l-1.7,0.2l0.9-1.6L426.8,463.8z"/>
		<path class="st9" d="M368.1,475.7l1.4-1.1v-1.8l1.4,1.1l1.6-0.6l-0.5,1.8l1.1,1.5h-1.8l-1,1.5l-0.5-1.8L368.1,475.7z"/>
		<path class="st9" d="M501,488.9l1.7,0.4l1.3-1.2l0.1,1.8l1.5,0.9l-1.6,0.7l-0.4,1.8l-1.1-1.5l-1.7,0.2l0.9-1.6L501,488.9z"/>
		<path class="st9" d="M426.8,407.2l1.7,0.5l1.3-1.3l0.1,1.9l1.5,0.9l-1.6,0.6l-0.4,1.8l-1.1-1.4l-1.7,0.1l0.9-1.6L426.8,407.2z"/>
		<path class="st9" d="M471,440.1l1.7,0.4l1.3-1.2l0.1,1.8l1.5,0.9l-1.6,0.6l-0.4,1.8l-1.1-1.4l-1.8,0.2l1-1.6L471,440.1z"/>
		<path class="st9" d="M346.7,457.6l2.9,0.8l2.3-2.1l0.2,3.2l2.6,1.7l-2.8,1.2l-0.7,3.2l-1.9-2.5l-3.1,0.3l1.7-2.7L346.7,457.6z"/>
		<path class="st9" d="M408.7,489.6l5.2,4.2l6.1-2.2l-2.1,6.4l3.8,5.5l-6.4-0.1l-3.8,5.6l-1.9-6.5l-6.1-2.1l5.3-3.9L408.7,489.6z"/>
		<path class="st9" d="M411.1,422.5l4.1,3.3l4.9-1.7l-1.7,5.1l3.1,4.4l-5.2-0.1l-3,4.3l-1.5-5.2L407,431l4.2-3.2L411.1,422.5z"/>
		<path class="st9" d="M480.2,467.6l-2.8-4.5l-1.7,5.1l-5,1.4l4,3.4l-0.1,2.6c0.7,0.4,1.4,0.7,2,1.2l2.1-1.5l4.8,2l-1.4-5.2l3.3-4.2
			L480.2,467.6z"/>
		<path class="st9" d="M448,422.5l5.7-3.3l5.8,3.1l-1.2-6.7l0.8-0.8c-2.5-2.2-5.1-4.3-7.7-6.2l-0.6,1.5l-6.4,1.2l4.7,4.6L448,422.5z
			"/>
		<path class="st17" d="M885.6,493.6c0,0-3.8,39,11,84.7c14.8,45.7,32.8,88.2,32.8,88.2h15.3c0,0,2.5-40.2,2-66.5
			c-0.5-26.4-0.8-46.2-0.8-46.2s11.9,12.2,18.5,16.7c6.6,4.4,14.4,4.1,23.5,2.2c9.1-1.9,53.9-13.6,53.9-13.6l-1-13.2
			c0,0-19.5-6.6-31.6-9s-25.8-6.9-25.8-6.9s-5.9-17.6-12.9-32.3c-7-14.7-9.8-19.4-9.8-19.4L885.6,493.6z"/>
		<path class="st18" d="M945.9,553.7c0,0-8.9-7.6-14.9-14.4c-6-6.9-10.6-14.3-10.6-14.3s6.4,15.7,14.6,24.3c7.6,8,11,10,11,10
			L945.9,553.7z"/>
		<path class="st9" d="M938.4,578.5l-8.2-7.7l10.4,0.4L938.4,578.5z"/>
		<path class="st9" d="M917,556.4l4-6.7l0.9,7.5L917,556.4z"/>
		<path class="st9" d="M938.2,651.4l-2.8-7.5l6.3,3.7L938.2,651.4z"/>
		<path class="st9" d="M952.2,508.9l1.8,8.3l-7.5-2.7L952.2,508.9z"/>
		<path class="st9" d="M920.9,628.8l4.8-0.6l-2,4.6L920.9,628.8z"/>
		<path class="st9" d="M972.4,542.4l4.9-0.7l-2.1,4.7L972.4,542.4z"/>
		<path class="st9" d="M992.3,551l3.6-6.5l3.6,6L992.3,551z"/>
		<path class="st9" d="M1030.4,554.8l5-5l2.8,4.5L1030.4,554.8z"/>
		<path class="st9" d="M923.6,505.4l0.7-5.2l3.7,3.5L923.6,505.4z"/>
		<path class="st9" d="M908.8,588.7l8.1,8.6l-11,2.6L908.8,588.7z"/>
		<path class="st9" d="M954.3,535.9l-3.8,11.5l-7.1-9.3L954.3,535.9z"/>
		<path class="st9" d="M1009.9,541.6l9.3,9.2l-10.4,4.9L1009.9,541.6z"/>
		<path class="st9" d="M902.6,519.1l7,9.2l2.5-9.2H902.6z"/>
		<path class="st9" d="M970.5,497.7c-0.2-0.5-0.5-0.9-0.7-1.5l-3.2-2.5l0.6,18.1l7.1-5.8C973.1,503.3,971.8,500.4,970.5,497.7z"/>
		<path class="st9" d="M885.2,506.7c0,2.4,0.1,5.1,0.2,8l4.7,0.7l-4.5-9.1L885.2,506.7z"/>
		<path class="st9" d="M946.7,609.5c0-3.4,0-6.6-0.1-9.7c0-0.6,0-1.3,0-1.9l-15.4,5.2L946.7,609.5z"/>
		<path class="st9" d="M987.2,559.1l-11.9,8.5l9.1,5.6c1.1-0.2,2.2-0.4,3.4-0.6c0.9-0.2,2.3-0.5,3.9-0.8L987.2,559.1z"/>
		<path class="st9" d="M891.7,560.8h10.6l-9.6-20.9l-2.9,12.5C890.5,555.2,891.1,558,891.7,560.8z"/>
		<path class="st8" d="M925.3,361.3c16.1,0,29.2-13.8,29.2-30.8c0-17-13.1-30.8-29.2-30.8c-16.1,0-29.2,13.8-29.2,30.8
			C896.1,347.5,909.2,361.3,925.3,361.3z"/>
		<path class="st6" d="M1041.6,558.9c0,0,2.6,11,4.2,16.2c1.6,5.2,4.6,11.7,7,11.8c2.5,0.1,3.1-9.6,1.7-24.4s-0.2-16.8-8.3-16.7
			c-3.6,0-5.5-0.2-5.5-0.2L1041.6,558.9z"/>
		<path class="st6" d="M929.4,666.4c0,0-10.4,2.3-16.1,4.6s-10.1,4.9-10.1,7.8c0,2.3,10.4,1.6,26.6,1.6c16.6,0.1,21.3,0.5,18.4-8.3
			c-1-3.1-3.5-5.8-3.5-5.8h-15.3V666.4z"/>
		<path class="st8" d="M871.2,289.8c0,0-2.4-7.5-2.1-11.6c0.3-4.1,1.5-10.4,1.7-13.8c0.2-3.4,0-10.2,2.8-10.4s4.9,4.1,4.8,8.8
			c-0.1,4.6,5,15.3,2.7,20.8s-3.4,7.8-3.4,7.8L871.2,289.8z"/>
		<path class="st8" d="M1042.2,376.9c0,0,7.1-2.5,10-5.2s7-7.5,9.5-9.7c2.5-2.2,7.8-6.2,6.2-8.6c-1.6-2.4-6.1-1.7-9.6,1.3
			c-3.4,2.8-14.6,5-17.4,10.1c-2.8,5.2-3.8,7.6-3.8,7.6L1042.2,376.9z"/>
		<path class="st9" d="M865.4,287.9l16.5,4c0,0-1.6,42.4-0.3,48.2c1.8,7.6,31.8,32.7,31.8,32.7s32.5,0.3,43,4.5
			c10.5,4.2,21.5,11.9,31.5,12.7c10,0.7,46.8-22.1,46.8-22.1l11.8,12.7c0,0-10.5,14.7-17.8,21.9c-9.5,9.5-25,22.7-35.8,24.3
			c-10.8,1.6-44.3-11.6-44.3-11.6s7.5,27.4,13.2,39.3c5.8,11.9,11.3,20.6,11.3,20.6s-25.9,16.3-47.8,20.9c-21.9,4.5-46.7,0-46.7,0
			s-6.8-19.3-1.5-50.6s9-39,9-39s-26.3-37.6-30.5-53C851.4,337.8,865.4,287.9,865.4,287.9z"/>
		<path class="st15" d="M934.9,399.3c0,0,4.8,7.7,8.2,10.9c3.3,3.1,5.6,5,5.6,5l5.1,17.3c0,0-9.3-7.3-12.8-14.4
			C937.3,410.7,934.9,399.3,934.9,399.3z"/>
		<path class="st15" d="M886.1,406c0,0,3.6-10.7,9.9-18.5c7.2-8.8,17.3-14.8,17.3-14.8l-3.3-2.7c0,0-9.1,3.7-17.2,13.2
			c-7,8.2-9.9,18.3-9.9,18.3L886.1,406z"/>
		<path class="st5" d="M954.6,330.5c0-17.1-13.1-30.8-29.2-30.8c-6.6,0-12.8,2.3-17.7,6.3c0,0-7.1,10,2.7,16.4
			c9.8,6.4,16.6,1.7,16.6,1.7s2.5,2.3,2.3,6.4c-0.5,7.7-10.3,9.5-10.1,19.4c0.3,13.7,14.8,11.6,14.8,18.9c0,6.3-7.7,10.2-8.4,18.7
			c-0.7,8.6,3.2,15.1,9.2,16.4c19.6,4.5,25.8-19.5,26.8-26.3c1-6.7-1.4-19.8-5-32.6C955.5,341.1,954.6,330.5,954.6,330.5z"/>
		<path class="st11" d="M887.2,229.8l-40.1,27l16.9,27.8l40.1-27L887.2,229.8z"/>
		<path class="st5" d="M883.2,228l3.6,1.7l13.1,27.5l-35.8,25.6l-19.7,5.1V255L883.2,228z"/>
		<path class="st10" d="M883.4,261.7l-40.1,27.1l-0.1-33.7l40-27L883.4,261.7z"/>
		<path class="st11" d="M883.2,228l3.8,1.9l0.2,0.6l-4-1.6V228z"/>
		<path class="st7" d="M886,230l8.9,26.8l-38.2,27.9l7.4-1.9l35.8-25.6l-12.7-26.7L886,230z"/>
		<path class="st8" d="M876.6,281.1l0.7-7.7l2.9-2l0.8,3.2L876.6,281.1z"/>
		<polygon class="st1" points="70.4,486.8 66.8,490.4 55.1,477.3 58.8,473.7 		"/>
	</g>
</g>
<path class="st19" d="M750.5,260l28.7-42h7.1l-28.7,42H750.5z M754.2,240.7c-2,0-3.8-0.5-5.4-1.4c-1.6-1-2.8-2.3-3.7-4
	c-0.9-1.8-1.3-3.8-1.3-6.2c0-2.4,0.4-4.4,1.3-6.1c0.9-1.7,2.2-3.1,3.7-4c1.6-1,3.4-1.4,5.4-1.4s3.8,0.5,5.4,1.4c1.6,1,2.8,2.3,3.7,4
	s1.3,3.8,1.3,6.1c0,2.4-0.4,4.4-1.3,6.2c-0.9,1.7-2.1,3.1-3.7,4C758,240.3,756.2,240.7,754.2,240.7z M754.2,235.8
	c1.3,0,2.4-0.5,3.2-1.6c0.8-1.1,1.2-2.8,1.2-5c0-2.2-0.4-3.9-1.2-5c-0.8-1.1-1.9-1.7-3.2-1.7c-1.3,0-2.3,0.6-3.2,1.7
	c-0.8,1.1-1.2,2.7-1.2,5c0,2.2,0.4,3.9,1.2,5C751.8,235.2,752.9,235.8,754.2,235.8z M782.7,260.5c-2,0-3.8-0.5-5.4-1.4
	c-1.6-1-2.8-2.3-3.7-4c-0.9-1.8-1.3-3.8-1.3-6.2c0-2.4,0.4-4.4,1.3-6.1s2.1-3.1,3.7-4c1.6-1,3.4-1.4,5.4-1.4c2.1,0,3.9,0.5,5.5,1.4
	c1.6,1,2.8,2.3,3.7,4s1.3,3.8,1.3,6.1c0,2.4-0.4,4.4-1.3,6.2c-0.9,1.7-2.1,3.1-3.7,4C786.6,260.1,784.8,260.5,782.7,260.5z
	 M782.7,255.6c1.3,0,2.4-0.5,3.2-1.6c0.8-1.1,1.2-2.8,1.2-5c0-2.2-0.4-3.9-1.2-5c-0.8-1.1-1.9-1.7-3.2-1.7c-1.3,0-2.3,0.6-3.2,1.7
	c-0.8,1.1-1.2,2.7-1.2,5c0,2.2,0.4,3.9,1.2,5C780.3,255.1,781.4,255.6,782.7,255.6z"/>
<path class="st5" d="M745.5,255l28.7-42h7.1l-28.7,42H745.5z M749.2,235.7c-2,0-3.8-0.5-5.4-1.4c-1.6-1-2.8-2.3-3.7-4
	c-0.9-1.8-1.3-3.8-1.3-6.2c0-2.4,0.4-4.4,1.3-6.1c0.9-1.7,2.2-3.1,3.7-4c1.6-1,3.4-1.4,5.4-1.4s3.8,0.5,5.4,1.4c1.6,1,2.8,2.3,3.7,4
	s1.3,3.8,1.3,6.1c0,2.4-0.4,4.4-1.3,6.2c-0.9,1.7-2.1,3.1-3.7,4C753,235.3,751.2,235.7,749.2,235.7z M749.2,230.8
	c1.3,0,2.4-0.5,3.2-1.6c0.8-1.1,1.2-2.8,1.2-5c0-2.2-0.4-3.9-1.2-5c-0.8-1.1-1.9-1.7-3.2-1.7c-1.3,0-2.3,0.6-3.2,1.7
	c-0.8,1.1-1.2,2.7-1.2,5c0,2.2,0.4,3.9,1.2,5C746.8,230.2,747.9,230.8,749.2,230.8z M777.7,255.5c-2,0-3.8-0.5-5.4-1.4
	c-1.6-1-2.8-2.3-3.7-4c-0.9-1.8-1.3-3.8-1.3-6.2c0-2.4,0.4-4.4,1.3-6.1s2.1-3.1,3.7-4c1.6-1,3.4-1.4,5.4-1.4c2.1,0,3.9,0.5,5.5,1.4
	c1.6,1,2.8,2.3,3.7,4s1.3,3.8,1.3,6.1c0,2.4-0.4,4.4-1.3,6.2c-0.9,1.7-2.1,3.1-3.7,4C781.6,255.1,779.8,255.5,777.7,255.5z
	 M777.7,250.6c1.3,0,2.4-0.5,3.2-1.6c0.8-1.1,1.2-2.8,1.2-5c0-2.2-0.4-3.9-1.2-5c-0.8-1.1-1.9-1.7-3.2-1.7c-1.3,0-2.3,0.6-3.2,1.7
	c-0.8,1.1-1.2,2.7-1.2,5c0,2.2,0.4,3.9,1.2,5C775.3,250.1,776.4,250.6,777.7,250.6z"/>
<path class="st19" d="M563.6,182.6c7.8,0,15,1.7,21.7,5.1c6.7,3.4,12,8.2,16,14.4s6,13.3,6,21.3c0,8.9-2.3,16.7-6.9,23.5
	c-4.5,6.8-10.7,12-18.6,15.7c-7.9,3.6-16.6,5.5-26.2,5.5c-12.3,0-23-2.4-32.2-7.1c-9.1-4.7-16.2-11.8-21.3-21.1
	c-5.1-9.3-7.6-20.8-7.6-34.4c0-14.6,2.9-27.2,8.7-37.9c5.9-10.7,14.2-18.8,24.8-24.4c10.7-5.6,23.1-8.4,37.1-8.4
	c7.6,0,14.9,0.9,21.8,2.7c6.9,1.7,12.8,4.1,17.7,7.3l-15.5,30c-6.3-4.5-14-6.7-23.1-6.7c-7.4,0-13.5,1.9-18.4,5.6
	c-4.7,3.6-7.8,9-9.3,16C544.9,185,553.4,182.6,563.6,182.6z M552.6,238.3c3.9,0,7-1.2,9.5-3.5s3.6-5.5,3.6-9.5s-1.2-7.2-3.6-9.5
	c-2.4-2.4-5.6-3.6-9.5-3.6s-7,1.2-9.5,3.6c-2.4,2.3-3.6,5.5-3.6,9.5s1.2,7.2,3.6,9.5S548.8,238.3,552.6,238.3z M672.4,268
	c-11.3,0-21.3-2.6-30-7.8c-8.6-5.3-15.4-13-20.4-22.9c-4.9-10.1-7.3-22-7.3-35.9c0-13.8,2.4-25.7,7.3-35.7
	c5-10.1,11.8-17.7,20.4-22.9c8.7-5.3,18.7-8,30-8s21.2,2.7,29.8,8c8.7,5.2,15.5,12.9,20.4,22.9c5,9.9,7.5,21.8,7.5,35.7
	c0,13.8-2.5,25.8-7.5,35.9c-4.9,9.9-11.6,17.6-20.4,22.9C693.7,265.3,683.7,268,672.4,268z M672.4,233.6c9.7,0,14.6-10.7,14.6-32.2
	s-4.9-32.2-14.6-32.2c-9.7,0-14.6,10.7-14.6,32.2S662.7,233.6,672.4,233.6z"/>
<path class="st5" d="M542.6,255c-12.1,0-22.8-2.3-32-6.9c-9.1-4.7-16.3-11.7-21.5-20.9c-5.1-9.3-7.6-20.9-7.6-34.8
	c0-14.9,3-27.6,8.9-38c5.9-10.6,14.2-18.6,24.8-24.2c10.7-5.6,23-8.4,36.9-8.4c7.5,0,14.7,0.9,21.7,2.7c7,1.7,13,4.1,17.8,7.3
	l-15.5,30c-3.8-2.7-7.6-4.4-11.5-5.3c-3.8-1-7.6-1.5-11.6-1.5c-8.6,0-15.5,2.6-20.7,7.8c-5.1,5.1-7.6,12.6-7.6,22.4
	c0,1.8,0,3.6,0,5.5c0,1.7,0,3.5,0,5.3l-9.8-7.1c2.4-4.1,5.3-7.6,8.6-10.4c3.3-2.9,7.2-5.1,11.6-6.6c4.5-1.6,9.7-2.4,15.7-2.4
	c7.8,0,14.9,1.7,21.5,5.1c6.7,3.3,12,7.9,16,14c4.1,6.1,6.2,13.3,6.2,21.7c0,9.1-2.3,17-6.9,23.7c-4.6,6.7-10.9,11.8-18.7,15.5
	C560.8,253.1,552.1,255,542.6,255z M539.6,225.3c2.5,0,4.8-0.5,6.7-1.5c2.1-1.1,3.6-2.6,4.7-4.6c1.1-1.9,1.6-4.2,1.6-6.9
	c0-4-1.2-7.2-3.6-9.5c-2.4-2.4-5.6-3.6-9.5-3.6c-2.5,0-4.8,0.5-6.7,1.6s-3.5,2.6-4.7,4.5c-1.1,1.9-1.6,4.2-1.6,6.9s0.5,5,1.6,6.9
	c1.2,1.9,2.8,3.5,4.7,4.6C534.8,224.8,537.1,225.3,539.6,225.3z M659.4,255c-11.3,0-21.3-2.6-30-7.8c-8.6-5.2-15.4-12.8-20.4-22.8
	c-4.9-9.9-7.3-22-7.3-36s2.4-26.1,7.3-36c5-9.9,11.8-17.5,20.4-22.8c8.7-5.2,18.7-7.8,30-7.8s21.2,2.6,29.8,7.8
	c8.7,5.2,15.5,12.8,20.4,22.8c5,9.9,7.5,22,7.5,36s-2.5,26.1-7.5,36c-4.9,9.9-11.6,17.5-20.4,22.8C680.7,252.3,670.7,255,659.4,255z
	 M659.4,220.6c2.8,0,5.3-1,7.5-2.9c2.2-1.9,3.9-5.3,5.1-10c1.3-4.7,2-11.2,2-19.3c0-8.3-0.7-14.7-2-19.3c-1.2-4.7-2.9-8.1-5.1-10
	c-2.2-1.9-4.7-2.9-7.5-2.9c-2.8,0-5.3,1-7.5,2.9s-3.9,5.3-5.3,10c-1.2,4.6-1.8,11-1.8,19.3c0,8.1,0.6,14.6,1.8,19.3
	c1.3,4.7,3.1,8.1,5.3,10C654.1,219.6,656.6,220.6,659.4,220.6z"/>
<path class="st19" d="M331.1,167.5c-2.7,0-5.1-0.5-7.2-1.6c-2.1-1-3.7-2.6-4.9-4.7c-1.2-2.2-1.7-4.9-1.7-8.2v-18.2h9.4v16.9
	c0,2.7,0.6,4.7,1.7,5.9c1.2,1.2,2.8,1.9,4.9,1.9c1.4,0,2.7-0.3,3.8-0.9c1.1-0.6,2-1.6,2.6-2.9c0.6-1.3,1-3,1-4.9v-16h9.4V167h-8.9
	v-8.9l1.6,2.6c-1.1,2.2-2.7,3.9-4.8,5.1C335.8,167,333.5,167.5,331.1,167.5z M377.7,167.5c-2.7,0-5.1-0.6-7.1-1.8
	c-2-1.2-3.6-3-4.8-5.5c-1.1-2.5-1.7-5.6-1.7-9.4c0-3.8,0.5-6.9,1.6-9.4c1.1-2.4,2.6-4.3,4.7-5.5c2-1.2,4.5-1.8,7.3-1.8
	c3,0,5.8,0.7,8.2,2.1c2.4,1.4,4.4,3.3,5.8,5.8c1.4,2.5,2.2,5.4,2.2,8.8c0,3.4-0.7,6.3-2.2,8.8c-1.4,2.5-3.3,4.4-5.8,5.8
	C383.5,166.8,380.8,167.5,377.7,167.5z M358.6,178.7v-43.9h8.9v6.6l-0.2,9.6l0.6,9.5v18.2H358.6z M376.1,159.8
	c1.6,0,2.9-0.4,4.1-1.1c1.2-0.7,2.2-1.7,2.9-3.1c0.8-1.4,1.1-3,1.1-4.8c0-1.9-0.4-3.5-1.1-4.8c-0.7-1.3-1.7-2.3-2.9-3.1
	c-1.2-0.7-2.6-1.1-4.1-1.1s-3,0.4-4.2,1.1s-2.2,1.7-2.9,3.1c-0.7,1.3-1.1,2.9-1.1,4.8c0,1.8,0.4,3.4,1.1,4.8
	c0.7,1.3,1.7,2.3,2.9,3.1S374.5,159.8,376.1,159.8z M430.3,167.5c-3.8,0-6.8-1-8.9-2.9c-2.1-2-3.2-4.9-3.2-8.7v-28.3h9.4v28.2
	c0,1.4,0.4,2.4,1.1,3.2c0.7,0.7,1.7,1.1,2.9,1.1c1.5,0,2.7-0.4,3.8-1.2l2.5,6.6c-1,0.7-2.1,1.2-3.5,1.6
	C433.1,167.4,431.7,167.5,430.3,167.5z M413.2,142.7v-7.2h22.4v7.2H413.2z M457.5,167.5c-3.4,0-6.5-0.7-9.2-2.2
	c-2.6-1.4-4.7-3.4-6.3-5.9c-1.5-2.5-2.3-5.4-2.3-8.6c0-3.2,0.8-6.1,2.3-8.6c1.6-2.5,3.7-4.5,6.3-5.9c2.7-1.4,5.7-2.2,9.2-2.2
	c3.4,0,6.4,0.7,9.1,2.2c2.7,1.4,4.8,3.3,6.3,5.8c1.5,2.5,2.3,5.4,2.3,8.6c0,3.2-0.8,6.1-2.3,8.6c-1.5,2.5-3.6,4.4-6.3,5.9
	C463.9,166.8,460.9,167.5,457.5,167.5z M457.5,159.8c1.6,0,3-0.4,4.2-1.1s2.2-1.7,2.9-3.1c0.7-1.4,1.1-3,1.1-4.8
	c0-1.9-0.4-3.5-1.1-4.8c-0.7-1.3-1.7-2.3-2.9-3.1s-2.6-1.1-4.2-1.1s-3,0.4-4.2,1.1c-1.2,0.7-2.2,1.7-3,3.1c-0.7,1.3-1.1,2.9-1.1,4.8
	c0,1.8,0.4,3.4,1.1,4.8c0.8,1.3,1.8,2.3,3,3.1C454.5,159.5,455.9,159.8,457.5,159.8z"/>
<path class="st5" d="M326.1,162.5c-2.7,0-5.1-0.5-7.2-1.6c-2.1-1-3.7-2.6-4.9-4.7c-1.2-2.2-1.7-4.9-1.7-8.2v-18.2h9.4v16.9
	c0,2.7,0.6,4.7,1.7,5.9c1.2,1.2,2.8,1.9,4.9,1.9c1.4,0,2.7-0.3,3.8-0.9c1.1-0.6,2-1.6,2.6-2.9c0.6-1.3,1-3,1-4.9v-16h9.4V162h-8.9
	v-8.9l1.6,2.6c-1.1,2.2-2.7,3.9-4.8,5.1C330.8,162,328.5,162.5,326.1,162.5z M372.7,162.5c-2.7,0-5.1-0.6-7.1-1.8
	c-2-1.2-3.6-3-4.8-5.5c-1.1-2.5-1.7-5.6-1.7-9.4c0-3.8,0.5-6.9,1.6-9.4c1.1-2.4,2.6-4.3,4.7-5.5c2-1.2,4.5-1.8,7.3-1.8
	c3,0,5.8,0.7,8.2,2.1c2.4,1.4,4.4,3.3,5.8,5.8c1.4,2.5,2.2,5.4,2.2,8.8c0,3.4-0.7,6.3-2.2,8.8c-1.4,2.5-3.3,4.4-5.8,5.8
	C378.5,161.8,375.8,162.5,372.7,162.5z M353.6,173.7v-43.9h8.9v6.6l-0.2,9.6l0.6,9.5v18.2H353.6z M371.1,154.8
	c1.6,0,2.9-0.4,4.1-1.1c1.2-0.7,2.2-1.7,2.9-3.1c0.8-1.4,1.1-3,1.1-4.8c0-1.9-0.4-3.5-1.1-4.8c-0.7-1.3-1.7-2.3-2.9-3.1
	c-1.2-0.7-2.6-1.1-4.1-1.1s-3,0.4-4.2,1.1s-2.2,1.7-2.9,3.1c-0.7,1.3-1.1,2.9-1.1,4.8c0,1.8,0.4,3.4,1.1,4.8
	c0.7,1.3,1.7,2.3,2.9,3.1S369.5,154.8,371.1,154.8z M425.3,162.5c-3.8,0-6.8-1-8.9-2.9c-2.1-2-3.2-4.9-3.2-8.7v-28.3h9.4v28.2
	c0,1.4,0.4,2.4,1.1,3.2c0.7,0.7,1.7,1.1,2.9,1.1c1.5,0,2.7-0.4,3.8-1.2l2.5,6.6c-1,0.7-2.1,1.2-3.5,1.6
	C428.1,162.4,426.7,162.5,425.3,162.5z M408.2,137.7v-7.2h22.4v7.2H408.2z M452.5,162.5c-3.4,0-6.5-0.7-9.2-2.2
	c-2.6-1.4-4.7-3.4-6.3-5.9c-1.5-2.5-2.3-5.4-2.3-8.6c0-3.2,0.8-6.1,2.3-8.6c1.6-2.5,3.7-4.5,6.3-5.9c2.7-1.4,5.7-2.2,9.2-2.2
	c3.4,0,6.4,0.7,9.1,2.2c2.7,1.4,4.8,3.3,6.3,5.8c1.5,2.5,2.3,5.4,2.3,8.6c0,3.2-0.8,6.1-2.3,8.6c-1.5,2.5-3.6,4.4-6.3,5.9
	C458.9,161.8,455.9,162.5,452.5,162.5z M452.5,154.8c1.6,0,3-0.4,4.2-1.1s2.2-1.7,2.9-3.1c0.7-1.4,1.1-3,1.1-4.8
	c0-1.9-0.4-3.5-1.1-4.8c-0.7-1.3-1.7-2.3-2.9-3.1s-2.6-1.1-4.2-1.1c-1.6,0-3,0.4-4.2,1.1s-2.2,1.7-3,3.1c-0.7,1.3-1.1,2.9-1.1,4.8
	c0,1.8,0.4,3.4,1.1,4.8c0.8,1.3,1.8,2.3,3,3.1S450.9,154.8,452.5,154.8z"/>
<path class="st20" d="M429.6,93V75.5h8.2c2.1,0,3.7,0.4,4.8,1.2c1.1,0.8,1.6,1.9,1.6,3.3c0,0.9-0.2,1.7-0.6,2.4
	c-0.4,0.7-1,1.2-1.8,1.5c-0.7,0.3-1.5,0.5-2.4,0.5l0.5-0.9c1,0,1.9,0.2,2.6,0.5c0.8,0.4,1.4,0.9,1.9,1.6c0.5,0.7,0.7,1.5,0.7,2.6
	c0,1.5-0.6,2.7-1.7,3.5s-2.9,1.2-5.1,1.2H429.6z M432.9,90.5h5.2c1.2,0,2.1-0.2,2.8-0.6c0.6-0.4,1-1,1-1.9c0-0.9-0.3-1.5-1-1.9
	c-0.7-0.4-1.6-0.6-2.8-0.6h-5.5v-2.5h4.9c1.1,0,2-0.2,2.6-0.6c0.6-0.4,0.9-1,0.9-1.8c0-0.8-0.3-1.4-0.9-1.8
	c-0.6-0.4-1.5-0.6-2.6-0.6h-4.6V90.5z M448.7,93V75.5h3.2v14.8h9.1V93H448.7z M461.2,93l7.9-17.5h3.2l7.9,17.5h-3.4L470,77.3h1.3
	L464.5,93H461.2z M464.8,89l0.9-2.6h9.4L476,89H464.8z M490.2,93.3c-1.3,0-2.6-0.2-3.7-0.6c-1.1-0.5-2.1-1.1-3-1.9
	c-0.8-0.8-1.5-1.8-2-2.9c-0.5-1.1-0.7-2.3-0.7-3.6s0.2-2.5,0.7-3.6c0.5-1.1,1.1-2,2-2.8c0.9-0.8,1.8-1.4,3-1.9
	c1.1-0.4,2.4-0.7,3.7-0.7c1.4,0,2.7,0.2,3.9,0.8c1.2,0.5,2.2,1.2,3,2.2l-2.1,2c-0.6-0.7-1.3-1.2-2.1-1.5c-0.8-0.4-1.6-0.5-2.5-0.5
	c-0.9,0-1.8,0.1-2.5,0.4c-0.8,0.3-1.4,0.7-2,1.3c-0.5,0.6-1,1.2-1.3,1.9c-0.3,0.8-0.5,1.6-0.5,2.5s0.1,1.7,0.5,2.5
	c0.3,0.8,0.8,1.4,1.3,1.9c0.6,0.6,1.2,1,2,1.3c0.8,0.3,1.6,0.4,2.5,0.4c0.9,0,1.8-0.2,2.5-0.5c0.8-0.3,1.5-0.9,2.1-1.6l2.1,2
	c-0.8,0.9-1.8,1.7-3,2.2C493,93,491.7,93.3,490.2,93.3z M503.2,88.9l-0.2-3.9l9.2-9.5h3.6l-7.6,8.1l-1.8,2L503.2,88.9z M500.3,93
	V75.5h3.2V93H500.3z M512.5,93l-6.7-8l2.2-2.4l8.3,10.4H512.5z M528.4,83.6h8.7v2.8h-8.7V83.6z M528.7,93h-3.2V75.5h12.8v2.7h-9.5
	V93z M541.3,93V75.5h7.2c1.5,0,2.9,0.2,4,0.8c1.1,0.5,2,1.2,2.6,2.1c0.6,0.9,0.9,2,0.9,3.3c0,1.3-0.3,2.4-0.9,3.3
	c-0.6,0.9-1.5,1.6-2.6,2.1c-1.1,0.5-2.4,0.7-4,0.7h-5.4l1.4-1.5V93H541.3z M552.8,93l-4.4-6.4h3.5l4.5,6.4H552.8z M544.6,86.8
	l-1.4-1.5h5.2c1.4,0,2.5-0.3,3.2-0.9c0.7-0.6,1.1-1.5,1.1-2.6c0-1.1-0.4-2-1.1-2.6c-0.7-0.6-1.8-0.9-3.2-0.9h-5.2l1.4-1.6V86.8z
	 M559.6,93V75.5h3.2V93H559.6z M567.6,93V75.5h7.6c1.9,0,3.6,0.4,5,1.1c1.4,0.7,2.6,1.8,3.4,3c0.8,1.3,1.2,2.8,1.2,4.6
	c0,1.8-0.4,3.3-1.2,4.6c-0.8,1.3-1.9,2.3-3.4,3c-1.4,0.7-3.1,1.1-5,1.1H567.6z M570.9,90.3h4.2c1.3,0,2.5-0.2,3.4-0.8
	c1-0.5,1.7-1.2,2.2-2.1c0.5-0.9,0.8-1.9,0.8-3.1c0-1.2-0.3-2.3-0.8-3.1c-0.5-0.9-1.3-1.6-2.2-2.1c-0.9-0.5-2.1-0.8-3.4-0.8h-4.2
	V90.3z M585.5,93l7.9-17.5h3.2l7.9,17.5h-3.4l-6.8-15.8h1.3L588.9,93H585.5z M589.2,89l0.9-2.6h9.5l0.9,2.6H589.2z M610,93v-6.9
	l0.7,2l-7.6-12.6h3.5l6.1,10.1h-2l6.2-10.1h3.2l-7.6,12.6l0.8-2V93H610z M634.6,93.3c-1.4,0-2.7-0.2-3.9-0.6c-1.2-0.4-2.2-0.9-3-1.5
	l1.1-2.5c0.7,0.6,1.6,1,2.6,1.4c1,0.4,2.1,0.6,3.2,0.6c0.9,0,1.7-0.1,2.2-0.3c0.6-0.2,1-0.5,1.2-0.8c0.3-0.3,0.4-0.7,0.4-1.2
	c0-0.5-0.2-1-0.6-1.3c-0.4-0.3-0.9-0.6-1.5-0.8c-0.6-0.2-1.3-0.4-2-0.6c-0.7-0.2-1.5-0.4-2.2-0.6c-0.7-0.2-1.4-0.5-2-0.9
	c-0.6-0.4-1.1-0.9-1.5-1.5c-0.4-0.6-0.6-1.4-0.6-2.3c0-1,0.2-1.8,0.8-2.6c0.5-0.8,1.3-1.4,2.3-1.9c1.1-0.5,2.4-0.7,4-0.7
	c1,0,2.1,0.1,3.1,0.4c1,0.3,1.9,0.7,2.7,1.2l-1,2.5c-0.8-0.5-1.6-0.8-2.4-1c-0.8-0.2-1.6-0.4-2.4-0.4c-0.9,0-1.6,0.1-2.2,0.3
	c-0.5,0.2-1,0.5-1.2,0.9c-0.2,0.4-0.4,0.8-0.4,1.2c0,0.5,0.2,1,0.5,1.3c0.4,0.3,0.9,0.6,1.5,0.8c0.6,0.2,1.3,0.4,2,0.6
	c0.8,0.2,1.5,0.4,2.2,0.6c0.8,0.2,1.4,0.5,2,0.9c0.6,0.3,1.1,0.8,1.5,1.4c0.4,0.6,0.6,1.4,0.6,2.3c0,0.9-0.3,1.8-0.8,2.6
	c-0.5,0.8-1.3,1.4-2.3,1.9C637.5,93.1,636.2,93.3,634.6,93.3z M642.4,93l7.9-17.5h3.2l7.9,17.5H658l-6.8-15.8h1.3L645.7,93H642.4z
	 M646,89l0.9-2.6h9.5l0.9,2.6H646z M663.6,93V75.5h3.2v14.8h9.2V93H663.6z M681.5,82.8h8.7v2.7h-8.7V82.8z M681.8,90.3h9.9V93h-13.1
	V75.5h12.8v2.7h-9.5V90.3z"/>
</svg>
