<?xml version="1.0" encoding="utf-8"?>
<!-- Generator: Adobe Illustrator 27.3.1, SVG Export Plug-In . SVG Version: 6.00 Build 0)  -->
<svg version="1.1" id="Слой_1" xmlns="http://www.w3.org/2000/svg" xmlns:xlink="http://www.w3.org/1999/xlink" x="0px" y="0px"
	 viewBox="0 0 158 273" style="enable-background:new 0 0 158 273;" xml:space="preserve">
<style type="text/css">
	.st0{fill:#FF8FE6;}
	.st1{fill:none;stroke:#1C2A39;stroke-width:2;}
	.st2{fill:#1C2A39;}
</style>
<rect x="-0.1" class="st0" width="137" height="273"/>
<path class="st1" d="M20.9,247h54"/>
<path class="st1" d="M68.9,241l7,6l-7,6"/>
<path class="st2" d="M25,166v-10.2h-4v-2.4h11v2.4h-4V166H25z M39.5,166.2c-1,0-1.9-0.2-2.8-0.5c-0.8-0.3-1.6-0.8-2.2-1.4
	c-0.6-0.6-1.1-1.3-1.4-2.1c-0.3-0.8-0.5-1.7-0.5-2.6c0-0.9,0.2-1.8,0.5-2.6c0.3-0.8,0.8-1.5,1.5-2.1c0.6-0.6,1.4-1,2.2-1.4
	s1.8-0.5,2.7-0.5c1,0,1.9,0.2,2.7,0.5c0.8,0.3,1.6,0.8,2.2,1.4c0.6,0.6,1.1,1.3,1.5,2.1c0.3,0.8,0.5,1.6,0.5,2.6
	c0,0.9-0.2,1.8-0.5,2.6c-0.3,0.8-0.8,1.5-1.5,2.1c-0.6,0.6-1.3,1-2.2,1.3C41.4,166.1,40.4,166.2,39.5,166.2z M39.4,163.7
	c0.6,0,1.1-0.1,1.5-0.3c0.5-0.2,0.9-0.5,1.3-0.8c0.4-0.4,0.6-0.8,0.8-1.3c0.2-0.5,0.3-1,0.3-1.6c0-0.6-0.1-1.1-0.3-1.6
	c-0.2-0.5-0.5-0.9-0.8-1.3c-0.3-0.4-0.8-0.6-1.2-0.8c-0.5-0.2-1-0.3-1.6-0.3s-1.1,0.1-1.6,0.3c-0.5,0.2-0.9,0.5-1.2,0.8
	s-0.6,0.8-0.8,1.3c-0.2,0.5-0.3,1-0.3,1.6c0,0.6,0.1,1.1,0.3,1.6c0.2,0.5,0.5,0.9,0.8,1.3c0.4,0.4,0.8,0.6,1.3,0.8
	S38.9,163.7,39.4,163.7z M48.5,166v-12.6H54c1.1,0,2.1,0.2,2.9,0.6c0.8,0.4,1.4,0.9,1.9,1.6c0.4,0.7,0.7,1.5,0.7,2.4
	c0,0.9-0.2,1.7-0.7,2.4c-0.4,0.7-1.1,1.2-1.9,1.6c-0.8,0.4-1.8,0.5-2.9,0.5h-3.8l1.3-1.3v4.8H48.5z M51.4,161.5l-1.3-1.4h3.7
	c0.9,0,1.6-0.2,2-0.6c0.4-0.4,0.7-0.9,0.7-1.6c0-0.7-0.2-1.2-0.7-1.6c-0.4-0.4-1.1-0.6-2-0.6h-3.7l1.3-1.4V161.5z M23.5,188v-11.5
	l1.3,1.3H21v-2.3h5.4V188H23.5z M34.1,188.2c-1,0-2-0.3-2.8-0.8c-0.8-0.5-1.5-1.3-1.9-2.2c-0.5-1-0.7-2.1-0.7-3.5
	c0-1.4,0.2-2.6,0.7-3.5c0.5-1,1.1-1.7,1.9-2.2c0.8-0.5,1.7-0.8,2.8-0.8c1,0,2,0.3,2.8,0.8c0.8,0.5,1.5,1.2,1.9,2.2
	c0.5,1,0.7,2.1,0.7,3.5c0,1.4-0.2,2.6-0.7,3.5c-0.5,1-1.1,1.7-1.9,2.2C36,188,35.1,188.2,34.1,188.2z M34.1,185.8
	c0.5,0,0.9-0.1,1.3-0.4c0.4-0.3,0.7-0.7,0.9-1.3c0.2-0.6,0.3-1.4,0.3-2.3s-0.1-1.7-0.3-2.3c-0.2-0.6-0.5-1-0.9-1.3
	c-0.4-0.3-0.8-0.4-1.3-0.4c-0.5,0-0.9,0.1-1.3,0.4c-0.4,0.3-0.6,0.7-0.9,1.3c-0.2,0.6-0.3,1.4-0.3,2.3s0.1,1.7,0.3,2.3
	c0.2,0.6,0.5,1,0.9,1.3C33.1,185.6,33.6,185.8,34.1,185.8z M46.3,188.2c-1,0-2-0.3-2.8-0.8c-0.8-0.5-1.5-1.3-1.9-2.2
	c-0.5-1-0.7-2.1-0.7-3.5c0-1.4,0.2-2.6,0.7-3.5c0.5-1,1.1-1.7,1.9-2.2c0.8-0.5,1.7-0.8,2.8-0.8c1,0,2,0.3,2.8,0.8
	c0.8,0.5,1.5,1.2,1.9,2.2c0.5,1,0.7,2.1,0.7,3.5c0,1.4-0.2,2.6-0.7,3.5c-0.5,1-1.1,1.7-1.9,2.2C48.2,188,47.3,188.2,46.3,188.2z
	 M46.3,185.8c0.5,0,0.9-0.1,1.3-0.4c0.4-0.3,0.7-0.7,0.9-1.3c0.2-0.6,0.3-1.4,0.3-2.3s-0.1-1.7-0.3-2.3c-0.2-0.6-0.5-1-0.9-1.3
	c-0.4-0.3-0.8-0.4-1.3-0.4c-0.5,0-0.9,0.1-1.3,0.4c-0.4,0.3-0.6,0.7-0.9,1.3c-0.2,0.6-0.3,1.4-0.3,2.3s0.1,1.7,0.3,2.3
	c0.2,0.6,0.5,1,0.9,1.3C45.4,185.6,45.8,185.8,46.3,185.8z M22.4,210v-12.6h6.2c1.6,0,2.8,0.3,3.6,0.9c0.8,0.6,1.2,1.4,1.2,2.4
	c0,0.7-0.2,1.2-0.5,1.7c-0.3,0.5-0.8,0.9-1.3,1.1c-0.6,0.3-1.2,0.4-1.9,0.4l0.3-0.7c0.8,0,1.5,0.1,2.1,0.4c0.6,0.3,1.1,0.6,1.4,1.1
	c0.3,0.5,0.5,1.1,0.5,1.9c0,1.1-0.4,1.9-1.3,2.5c-0.9,0.6-2.1,0.9-3.8,0.9H22.4z M25.3,207.8h3.4c0.8,0,1.3-0.1,1.7-0.4
	c0.4-0.3,0.6-0.6,0.6-1.2c0-0.5-0.2-0.9-0.6-1.2c-0.4-0.3-1-0.4-1.7-0.4h-3.6v-2.1h3.1c0.7,0,1.2-0.1,1.6-0.4
	c0.4-0.3,0.6-0.6,0.6-1.1c0-0.5-0.2-0.9-0.6-1.1c-0.4-0.3-0.9-0.4-1.6-0.4h-2.9V207.8z M42.3,210.2c-1,0-1.9-0.2-2.8-0.5
	c-0.8-0.3-1.6-0.8-2.2-1.4c-0.6-0.6-1.1-1.3-1.4-2.1c-0.3-0.8-0.5-1.7-0.5-2.6c0-0.9,0.2-1.8,0.5-2.6c0.3-0.8,0.8-1.5,1.5-2.1
	c0.6-0.6,1.4-1,2.2-1.4s1.8-0.5,2.7-0.5c1,0,1.9,0.2,2.7,0.5c0.8,0.3,1.6,0.8,2.2,1.4c0.6,0.6,1.1,1.3,1.5,2.1
	c0.3,0.8,0.5,1.6,0.5,2.6c0,0.9-0.2,1.8-0.5,2.6c-0.3,0.8-0.8,1.5-1.5,2.1c-0.6,0.6-1.3,1-2.2,1.3C44.2,210.1,43.3,210.2,42.3,210.2
	z M42.3,207.7c0.6,0,1.1-0.1,1.5-0.3c0.5-0.2,0.9-0.5,1.3-0.8c0.4-0.4,0.6-0.8,0.8-1.3c0.2-0.5,0.3-1,0.3-1.6c0-0.6-0.1-1.1-0.3-1.6
	c-0.2-0.5-0.5-0.9-0.8-1.3c-0.3-0.4-0.8-0.6-1.2-0.8c-0.5-0.2-1-0.3-1.6-0.3s-1.1,0.1-1.6,0.3c-0.5,0.2-0.9,0.5-1.2,0.8
	s-0.6,0.8-0.8,1.3c-0.2,0.5-0.3,1-0.3,1.6c0,0.6,0.1,1.1,0.3,1.6c0.2,0.5,0.5,0.9,0.8,1.3c0.4,0.4,0.8,0.6,1.3,0.8
	S41.7,207.7,42.3,207.7z M57.5,210.2c-1,0-1.9-0.2-2.8-0.5c-0.8-0.3-1.6-0.8-2.2-1.4c-0.6-0.6-1.1-1.3-1.4-2.1
	c-0.3-0.8-0.5-1.7-0.5-2.6c0-0.9,0.2-1.8,0.5-2.6c0.3-0.8,0.8-1.5,1.5-2.1c0.6-0.6,1.4-1,2.2-1.4c0.8-0.3,1.8-0.5,2.7-0.5
	c1,0,1.9,0.2,2.7,0.5c0.8,0.3,1.6,0.8,2.2,1.4c0.6,0.6,1.1,1.3,1.5,2.1c0.3,0.8,0.5,1.6,0.5,2.6c0,0.9-0.2,1.8-0.5,2.6
	c-0.3,0.8-0.8,1.5-1.5,2.1c-0.6,0.6-1.3,1-2.2,1.3C59.4,210.1,58.4,210.2,57.5,210.2z M57.4,207.7c0.6,0,1.1-0.1,1.5-0.3
	c0.5-0.2,0.9-0.5,1.3-0.8s0.6-0.8,0.8-1.3c0.2-0.5,0.3-1,0.3-1.6c0-0.6-0.1-1.1-0.3-1.6c-0.2-0.5-0.5-0.9-0.8-1.3
	c-0.3-0.4-0.8-0.6-1.2-0.8c-0.5-0.2-1-0.3-1.6-0.3c-0.6,0-1.1,0.1-1.6,0.3c-0.5,0.2-0.9,0.5-1.2,0.8c-0.4,0.4-0.6,0.8-0.8,1.3
	c-0.2,0.5-0.3,1-0.3,1.6c0,0.6,0.1,1.1,0.3,1.6c0.2,0.5,0.5,0.9,0.8,1.3c0.4,0.4,0.8,0.6,1.3,0.8C56.4,207.6,56.9,207.7,57.4,207.7z
	 M69.1,207.1l-0.2-3.4l6-6.4h3.2l-5.4,5.9l-1.6,1.7L69.1,207.1z M66.5,210v-12.6h2.9V210H66.5z M75.2,210l-4.5-5.5l1.9-2.1l6,7.6
	H75.2z M83.7,210.2c-1,0-2-0.1-2.9-0.4c-0.9-0.3-1.7-0.6-2.2-1.1l1-2.2c0.5,0.4,1.2,0.7,1.9,1c0.7,0.2,1.5,0.4,2.2,0.4
	c0.6,0,1-0.1,1.4-0.2c0.4-0.1,0.6-0.3,0.8-0.5c0.2-0.2,0.3-0.4,0.3-0.7c0-0.3-0.1-0.6-0.4-0.8c-0.3-0.2-0.6-0.4-1-0.5
	c-0.4-0.1-0.9-0.3-1.4-0.4c-0.5-0.1-1-0.3-1.6-0.4c-0.5-0.2-1-0.4-1.4-0.6c-0.4-0.3-0.8-0.6-1.1-1c-0.3-0.4-0.4-1-0.4-1.7
	c0-0.7,0.2-1.4,0.6-2c0.4-0.6,1-1.1,1.8-1.4c0.8-0.4,1.8-0.5,3-0.5c0.8,0,1.6,0.1,2.3,0.3c0.8,0.2,1.4,0.5,2,0.8l-0.9,2.2
	c-0.6-0.3-1.2-0.6-1.8-0.7c-0.6-0.2-1.2-0.3-1.7-0.3s-1,0.1-1.4,0.2s-0.6,0.3-0.8,0.5c-0.2,0.2-0.2,0.4-0.2,0.7
	c0,0.3,0.1,0.6,0.4,0.8c0.3,0.2,0.6,0.3,1,0.5s0.9,0.2,1.4,0.4c0.5,0.1,1,0.3,1.6,0.4c0.5,0.2,1,0.4,1.4,0.6c0.4,0.3,0.8,0.6,1,1
	c0.3,0.4,0.4,1,0.4,1.6c0,0.7-0.2,1.4-0.6,1.9c-0.4,0.6-1,1.1-1.8,1.4C85.9,210,84.9,210.2,83.7,210.2z M21.5,232v-1.9l4.9-4.6
	c0.4-0.3,0.7-0.7,0.8-0.9s0.3-0.5,0.4-0.8c0.1-0.2,0.1-0.4,0.1-0.6c0-0.5-0.2-0.9-0.5-1.2c-0.3-0.3-0.8-0.4-1.5-0.4
	c-0.5,0-1,0.1-1.5,0.3c-0.4,0.2-0.8,0.5-1.1,1l-2.1-1.4c0.5-0.7,1.2-1.3,2-1.7c0.9-0.4,1.9-0.6,3-0.6c0.9,0,1.8,0.2,2.4,0.5
	c0.7,0.3,1.3,0.7,1.6,1.3c0.4,0.6,0.6,1.2,0.6,2c0,0.4-0.1,0.8-0.2,1.2c-0.1,0.4-0.3,0.8-0.6,1.3c-0.3,0.4-0.7,0.9-1.3,1.5l-4,3.8
	l-0.6-1.1H31v2.4H21.5z M37.6,232.2c-1,0-2-0.3-2.8-0.8c-0.8-0.5-1.5-1.3-1.9-2.2c-0.5-1-0.7-2.1-0.7-3.5c0-1.4,0.2-2.6,0.7-3.5
	c0.5-1,1.1-1.7,1.9-2.2c0.8-0.5,1.7-0.8,2.8-0.8c1,0,2,0.3,2.8,0.8c0.8,0.5,1.5,1.2,1.9,2.2c0.5,1,0.7,2.1,0.7,3.5
	c0,1.4-0.2,2.6-0.7,3.5c-0.5,1-1.1,1.7-1.9,2.2C39.6,232,38.7,232.2,37.6,232.2z M37.6,229.8c0.5,0,0.9-0.1,1.3-0.4
	c0.4-0.3,0.7-0.7,0.9-1.3c0.2-0.6,0.3-1.4,0.3-2.3s-0.1-1.7-0.3-2.3c-0.2-0.6-0.5-1-0.9-1.3c-0.4-0.3-0.8-0.4-1.3-0.4
	c-0.5,0-0.9,0.1-1.3,0.4c-0.4,0.3-0.6,0.7-0.9,1.3c-0.2,0.6-0.3,1.4-0.3,2.3s0.1,1.7,0.3,2.3c0.2,0.6,0.5,1,0.9,1.3
	C36.7,229.6,37.1,229.8,37.6,229.8z M44.3,232v-1.9l4.9-4.6c0.4-0.3,0.7-0.7,0.8-0.9s0.3-0.5,0.4-0.8c0.1-0.2,0.1-0.4,0.1-0.6
	c0-0.5-0.2-0.9-0.5-1.2c-0.3-0.3-0.8-0.4-1.5-0.4c-0.5,0-1,0.1-1.5,0.3c-0.4,0.2-0.8,0.5-1.1,1l-2.1-1.4c0.5-0.7,1.2-1.3,2-1.7
	c0.9-0.4,1.9-0.6,3-0.6c0.9,0,1.8,0.2,2.4,0.5c0.7,0.3,1.3,0.7,1.6,1.3c0.4,0.6,0.6,1.2,0.6,2c0,0.4-0.1,0.8-0.2,1.2
	c-0.1,0.4-0.3,0.8-0.6,1.3c-0.3,0.4-0.7,0.9-1.3,1.5l-4,3.8l-0.6-1.1h7.1v2.4H44.3z M54.9,232v-1.9l4.9-4.6c0.4-0.3,0.7-0.7,0.8-0.9
	s0.3-0.5,0.4-0.8c0.1-0.2,0.1-0.4,0.1-0.6c0-0.5-0.2-0.9-0.5-1.2c-0.3-0.3-0.8-0.4-1.5-0.4c-0.5,0-1,0.1-1.5,0.3
	c-0.4,0.2-0.8,0.5-1.1,1l-2.1-1.4c0.5-0.7,1.2-1.3,2-1.7s1.9-0.6,3-0.6c0.9,0,1.8,0.2,2.4,0.5c0.7,0.3,1.3,0.7,1.6,1.3
	c0.4,0.6,0.6,1.2,0.6,2c0,0.4-0.1,0.8-0.2,1.2c-0.1,0.4-0.3,0.8-0.6,1.3c-0.3,0.4-0.7,0.9-1.3,1.5l-4,3.8l-0.6-1.1h7.1v2.4H54.9z"/>
<rect x="139.2" y="14.2" class="st0" width="12.7" height="23.3"/>
<rect x="131.6" y="-4.4" class="st0" width="38.3" height="305.7"/>
</svg>
