<?xml version="1.0" encoding="utf-8"?>
<!-- Generator: Adobe Illustrator 27.3.1, SVG Export Plug-In . SVG Version: 6.00 Build 0)  -->
<svg version="1.1" id="Слой_1" xmlns="http://www.w3.org/2000/svg" xmlns:xlink="http://www.w3.org/1999/xlink" x="0px" y="0px"
	 viewBox="0 0 149 204" style="enable-background:new 0 0 149 204;" xml:space="preserve">
<style type="text/css">
	.st0{fill:#EEECEC;}
	.st1{fill:#9E98DC;}
	.st2{fill:none;stroke:#1C2A39;stroke-width:2;}
	.st3{fill:#1C2A39;}
</style>
<g>
	<rect x="20" y="10" class="st0" width="109" height="185"/>
</g>
<rect class="st1" width="149" height="204"/>
<path class="st2" d="M20,178h54"/>
<path class="st2" d="M68,172l7,6l-7,6"/>
<path class="st3" d="M27.5,119.2c-1.3,0-2.4-0.3-3.5-0.8c-1-0.6-1.8-1.3-2.4-2.3c-0.6-1-0.9-2.1-0.9-3.4c0-1.2,0.3-2.4,0.9-3.3
	c0.6-1,1.4-1.8,2.4-2.3c1-0.6,2.2-0.8,3.5-0.8c1.1,0,2.1,0.2,3,0.6c0.9,0.4,1.6,0.9,2.2,1.7l-1.9,1.7c-0.9-1-1.9-1.5-3.2-1.5
	c-0.8,0-1.5,0.2-2.1,0.5c-0.6,0.3-1.1,0.8-1.4,1.4c-0.3,0.6-0.5,1.3-0.5,2.1c0,0.8,0.2,1.5,0.5,2.1c0.3,0.6,0.8,1.1,1.4,1.4
	c0.6,0.3,1.3,0.5,2.1,0.5c1.3,0,2.3-0.5,3.2-1.5l1.9,1.7c-0.6,0.7-1.3,1.3-2.2,1.7S28.6,119.2,27.5,119.2z M46.3,106.4V119h-2.9
	v-5.2h-5.7v5.2h-2.9v-12.6h2.9v5h5.7v-5H46.3z M57.5,116.3h-5.8l-1.1,2.7h-3l5.6-12.6h2.9l5.6,12.6h-3.1L57.5,116.3z M56.6,114.1
	l-2-4.8l-2,4.8H56.6z M74.6,106.4V119h-2.4l-6.3-7.7v7.7H63v-12.6h2.4l6.3,7.7v-7.7H74.6z M86.1,112.5h2.7v5.1
	c-0.7,0.5-1.5,0.9-2.4,1.2c-0.9,0.3-1.8,0.4-2.7,0.4c-1.3,0-2.5-0.3-3.5-0.8c-1-0.6-1.9-1.3-2.5-2.3c-0.6-1-0.9-2.1-0.9-3.4
	c0-1.2,0.3-2.4,0.9-3.3c0.6-1,1.4-1.8,2.5-2.3c1.1-0.6,2.2-0.8,3.6-0.8c1.1,0,2.1,0.2,3,0.6c0.9,0.4,1.7,0.9,2.3,1.6l-1.9,1.7
	c-0.9-0.9-2-1.4-3.3-1.4c-0.8,0-1.5,0.2-2.1,0.5c-0.6,0.3-1.1,0.8-1.5,1.4s-0.5,1.3-0.5,2.1c0,0.8,0.2,1.5,0.5,2.1s0.8,1.1,1.4,1.4
	c0.6,0.3,1.3,0.5,2.1,0.5c0.8,0,1.6-0.2,2.3-0.5V112.5z M101.2,116.7v2.3h-9.8v-12.6h9.5v2.3h-6.6v2.7h5.8v2.3h-5.8v2.9H101.2z
	 M27.6,141.2c-1.3,0-2.5-0.3-3.5-0.8c-1-0.6-1.9-1.3-2.5-2.3c-0.6-1-0.9-2.1-0.9-3.3c0-1.2,0.3-2.3,0.9-3.3c0.6-1,1.4-1.8,2.5-2.3
	c1.1-0.6,2.2-0.8,3.5-0.8c1.3,0,2.5,0.3,3.5,0.8s1.9,1.3,2.5,2.3c0.6,1,0.9,2.1,0.9,3.3c0,1.2-0.3,2.4-0.9,3.3
	c-0.6,1-1.4,1.8-2.5,2.3C30.1,140.9,28.9,141.2,27.6,141.2z M27.6,138.7c0.7,0,1.4-0.2,2-0.5c0.6-0.3,1.1-0.8,1.4-1.4
	c0.3-0.6,0.5-1.3,0.5-2.1s-0.2-1.5-0.5-2.1c-0.3-0.6-0.8-1.1-1.4-1.4c-0.6-0.3-1.3-0.5-2-0.5s-1.4,0.2-2,0.5
	c-0.6,0.3-1.1,0.8-1.4,1.4c-0.3,0.6-0.5,1.3-0.5,2.1s0.2,1.5,0.5,2.1c0.3,0.6,0.8,1.1,1.4,1.4C26.2,138.6,26.9,138.7,27.6,138.7z
	 M36.7,128.4h2.9v10.2h6.3v2.4h-9.2V128.4z M47.5,128.4h5.7c1.4,0,2.6,0.3,3.6,0.8c1.1,0.5,1.9,1.2,2.4,2.2c0.6,0.9,0.9,2.1,0.9,3.3
	c0,1.3-0.3,2.4-0.9,3.3c-0.6,0.9-1.4,1.7-2.4,2.2c-1,0.5-2.2,0.8-3.6,0.8h-5.7V128.4z M53.1,138.6c1.3,0,2.3-0.3,3-1
	c0.8-0.7,1.1-1.7,1.1-2.9s-0.4-2.1-1.1-2.8c-0.7-0.7-1.7-1.1-3-1.1h-2.7v7.8H53.1z M76.8,134.4c0.7,0.2,1.3,0.6,1.7,1.2
	c0.4,0.5,0.6,1.2,0.6,2c0,1.1-0.4,2-1.3,2.6c-0.9,0.6-2.1,0.9-3.7,0.9h-6.5v-12.6h6.2c1.5,0,2.7,0.3,3.5,0.9
	c0.8,0.6,1.2,1.4,1.2,2.4c0,0.6-0.2,1.2-0.4,1.6C77.7,133.8,77.3,134.2,76.8,134.4z M70.4,130.6v3h2.9c0.7,0,1.3-0.1,1.6-0.4
	s0.6-0.6,0.6-1.1c0-0.5-0.2-0.9-0.6-1.1c-0.4-0.3-0.9-0.4-1.6-0.4H70.4z M73.8,138.8c0.8,0,1.3-0.1,1.7-0.4c0.4-0.3,0.6-0.6,0.6-1.2
	c0-1-0.8-1.6-2.3-1.6h-3.4v3.1H73.8z M87.4,141.2c-1.3,0-2.5-0.3-3.5-0.8c-1-0.6-1.9-1.3-2.5-2.3c-0.6-1-0.9-2.1-0.9-3.3
	c0-1.2,0.3-2.3,0.9-3.3c0.6-1,1.4-1.8,2.5-2.3c1.1-0.6,2.2-0.8,3.5-0.8s2.5,0.3,3.5,0.8s1.9,1.3,2.5,2.3c0.6,1,0.9,2.1,0.9,3.3
	c0,1.2-0.3,2.4-0.9,3.3c-0.6,1-1.4,1.8-2.5,2.3C89.9,140.9,88.7,141.2,87.4,141.2z M87.4,138.7c0.7,0,1.4-0.2,2-0.5
	c0.6-0.3,1.1-0.8,1.4-1.4c0.3-0.6,0.5-1.3,0.5-2.1s-0.2-1.5-0.5-2.1c-0.3-0.6-0.8-1.1-1.4-1.4c-0.6-0.3-1.3-0.5-2-0.5
	c-0.7,0-1.4,0.2-2,0.5c-0.6,0.3-1.1,0.8-1.4,1.4c-0.3,0.6-0.5,1.3-0.5,2.1s0.2,1.5,0.5,2.1c0.3,0.6,0.8,1.1,1.4,1.4
	C86,138.6,86.6,138.7,87.4,138.7z M102.6,141.2c-1.3,0-2.5-0.3-3.5-0.8c-1-0.6-1.9-1.3-2.5-2.3c-0.6-1-0.9-2.1-0.9-3.3
	c0-1.2,0.3-2.3,0.9-3.3c0.6-1,1.4-1.8,2.5-2.3c1.1-0.6,2.2-0.8,3.5-0.8s2.5,0.3,3.5,0.8s1.9,1.3,2.5,2.3c0.6,1,0.9,2.1,0.9,3.3
	c0,1.2-0.3,2.4-0.9,3.3c-0.6,1-1.4,1.8-2.5,2.3C105.1,140.9,103.9,141.2,102.6,141.2z M102.6,138.7c0.7,0,1.4-0.2,2-0.5
	c0.6-0.3,1.1-0.8,1.4-1.4c0.3-0.6,0.5-1.3,0.5-2.1s-0.2-1.5-0.5-2.1c-0.3-0.6-0.8-1.1-1.4-1.4c-0.6-0.3-1.3-0.5-2-0.5
	c-0.7,0-1.4,0.2-2,0.5c-0.6,0.3-1.1,0.8-1.4,1.4c-0.3,0.6-0.5,1.3-0.5,2.1s0.2,1.5,0.5,2.1c0.3,0.6,0.8,1.1,1.4,1.4
	C101.2,138.6,101.8,138.7,102.6,138.7z M116.2,136.1l-1.7,1.8v3.2h-2.9v-12.6h2.9v5.9l5.6-5.9h3.2l-5.2,5.6l5.5,7h-3.4L116.2,136.1z
	 M27.6,163.2c-1.3,0-2.5-0.3-3.5-0.8c-1-0.6-1.9-1.3-2.5-2.3c-0.6-1-0.9-2.1-0.9-3.3c0-1.2,0.3-2.3,0.9-3.3c0.6-1,1.4-1.8,2.5-2.3
	c1.1-0.6,2.2-0.8,3.5-0.8c1.3,0,2.5,0.3,3.5,0.8s1.9,1.3,2.5,2.3c0.6,1,0.9,2.1,0.9,3.3c0,1.2-0.3,2.4-0.9,3.3
	c-0.6,1-1.4,1.8-2.5,2.3C30.1,162.9,28.9,163.2,27.6,163.2z M27.6,160.7c0.7,0,1.4-0.2,2-0.5c0.6-0.3,1.1-0.8,1.4-1.4
	c0.3-0.6,0.5-1.3,0.5-2.1s-0.2-1.5-0.5-2.1c-0.3-0.6-0.8-1.1-1.4-1.4c-0.6-0.3-1.3-0.5-2-0.5s-1.4,0.2-2,0.5
	c-0.6,0.3-1.1,0.8-1.4,1.4c-0.3,0.6-0.5,1.3-0.5,2.1s0.2,1.5,0.5,2.1c0.3,0.6,0.8,1.1,1.4,1.4C26.2,160.6,26.9,160.7,27.6,160.7z
	 M48.2,150.4V163h-2.4l-6.3-7.6v7.6h-2.9v-12.6h2.4l6.3,7.7v-7.7H48.2z M67.9,150.4V163h-2.4l-6.3-7.6v7.6h-2.9v-12.6h2.4l6.3,7.7
	v-7.7H67.9z M80.6,160.7v2.3h-9.8v-12.6h9.5v2.3h-6.6v2.7h5.8v2.3h-5.8v2.9H80.6z M101.8,150.4L97.7,163h-3.1l-2.8-8.5l-2.9,8.5
	h-3.1l-4.1-12.6h3l2.8,8.9l3-8.9h2.7l2.9,8.9l2.9-8.9H101.8z"/>
</svg>
