<?xml version="1.0" encoding="utf-8"?>
<!-- Generator: Adobe Illustrator 27.3.1, SVG Export Plug-In . SVG Version: 6.00 Build 0)  -->
<svg version="1.1" id="Слой_1" xmlns="http://www.w3.org/2000/svg" xmlns:xlink="http://www.w3.org/1999/xlink" x="0px" y="0px"
	 viewBox="0 0 12 11" style="enable-background:new 0 0 12 11;" xml:space="preserve">
<style type="text/css">
	.st0{fill:#EEEDF5;}
	.st1{fill:#04A339;}
	.st2{clip-path:url(#SVGID_00000103955607661372077520000015144027419130957476_);fill:#F49824;}
	.st3{clip-path:url(#SVGID_00000163073873434732114010000016031731676369726363_);fill:#F2C94C;}
</style>
<polygon class="st0" points="31.4,4 27.5,4.7 30.3,7.5 29.7,11.4 32.9,9.8 32.9,1.2 "/>
<polygon class="st1" points="36.8,11.4 36.2,7.5 38.9,4.7 35,4 33.2,0.5 32.9,1.2 32.9,9.8 33.2,9.6 "/>
<g>
	<defs>
		<path id="SVGID_1_" d="M41.3-19.6l1.8,3.5l3.9,0.6l-2.8,2.8l0.6,3.9l-3.5-1.8l-3.5,1.8l0.6-3.9l-2.8-2.8l3.9-0.6L41.3-19.6z"/>
	</defs>
	<clipPath id="SVGID_00000092447907077268626240000003964237620951394691_">
		<use xlink:href="#SVGID_1_"  style="overflow:visible;"/>
	</clipPath>
	
		<rect x="29" y="-22.5" style="clip-path:url(#SVGID_00000092447907077268626240000003964237620951394691_);fill:#F49824;" width="17.5" height="16.5"/>
</g>
<g>
	<defs>
		<path id="SVGID_00000149361392459109524420000010844999442167953817_" d="M6,0l1.8,3.5l3.9,0.6L8.9,6.9l0.6,3.9L6,9.1l-3.5,1.8
			l0.6-3.9L0.3,4.1l3.9-0.6L6,0z"/>
	</defs>
	<clipPath id="SVGID_00000083068995436374172580000008230460570354047625_">
		<use xlink:href="#SVGID_00000149361392459109524420000010844999442167953817_"  style="overflow:visible;"/>
	</clipPath>
	
		<rect x="-6.6" y="-2.7" style="clip-path:url(#SVGID_00000083068995436374172580000008230460570354047625_);fill:#F2C94C;" width="23.1" height="15.2"/>
</g>
</svg>
